<svg width="105" height="56" fill="none" xmlns="http://www.w3.org/2000/svg"><g clip-path="url(#a)"><path d="M68.35 17.371c-.01 9.581-7.8 17.34-17.4 17.333-9.602-.008-17.38-7.778-17.376-17.359C33.577 7.765 41.36 0 50.962 0c9.603.003 17.386 7.77 17.389 17.352" fill="#EBEBEC"/><path d="M33.83 14.402a17.828 17.828 0 0 0-.256 2.955c-.027 8.265 5.792 15.401 13.907 17.056 8.115 1.655 16.273-2.632 19.498-10.244L33.83 14.402Z" fill="#DCDDDE"/><path d="m39.156 25.828 5.814-14.125-5.355-1.798 1.209-3.078 9.294 2.984-4.2 13.53L55.37 26.1l-1.481 4.167-14.733-4.438Z" fill="#13913E"/><path d="m49.309 18.933 7.472-7.349-4.496-1.29 1.362-3.413 9.63 3.063-6.614 7.373 5.854 1.626-1.367 3.511-11.841-3.521ZM86.27 34.743c-9.614 0-17.408-7.778-17.408-17.372C68.862 7.777 76.656 0 86.271 0c9.614 0 17.408 7.777 17.408 17.371-.011 9.59-7.798 17.361-17.408 17.372Z" fill="#EE2E24"/><path d="M86.27 0a17.307 17.307 0 0 0-6.658 1.325L92.94 33.418c7.67-3.174 12.027-11.312 10.405-19.439C101.722 5.852 94.574 0 86.271 0Z" fill="#F68D76"/><path d="m83.16 9.88 6.753 16.254c-3.949 1.67-9.719 1.906-13.776.177l7.024-16.43Z" fill="#fff"/><path d="m84.726 5.822 2.27 5.294 2.271-5.294h-4.54ZM93.112 7.56l-2.147 5.35 5.36-2.148-3.213-3.202ZM98.067 14.963l-5.311 2.266 5.31 2.265v-4.531ZM96.325 23.69l-5.36-2.142 2.147 5.35 3.213-3.207Z" fill="#EE2E24"/><path d="m84.726 5.822 2.27 5.294 2.271-5.294h-4.54ZM93.112 7.56l-2.147 5.35 5.36-2.148-3.213-3.202ZM98.067 14.963l-5.311 2.266 5.31 2.265v-4.531ZM96.325 23.69l-5.36-2.142 2.147 5.35 3.213-3.207Z" fill="#EE2E24"/><path d="M14.28 33.943H0v-14.32A18.62 18.62 0 0 1 5.471 6.439 18.7 18.7 0 0 1 18.685.978h14.349v14.25c0 10.341-8.4 18.724-18.764 18.724" fill="#0DAD4A"/><path d="M5.244 24.777 9.786 6.36c4.277.374 7.407 2.493 7.407 7.336 0 6.307-3.753 8.106-7.732 8.421l-.41 3.385-3.807-.724Z" fill="#fff"/><path d="M27.232.978 14.226 33.942h.054c10.363 0 18.764-8.383 18.764-18.724V.978h-5.812Z" fill="#13913E"/><path d="m21.86 29.488 4.167-17.408-2.79-.97-6.636 16.811 5.259 1.567Z" fill="#fff"/><path fill-rule="evenodd" clip-rule="evenodd" d="M.002 49.997a5.754 5.754 0 0 1 1.691-4.226 5.79 5.79 0 0 1 4.238-1.686 5.651 5.651 0 0 1 4.903 2.682l-1.94 1.121a3.282 3.282 0 0 0-2.963-1.627c-2.233 0-3.696 1.535-3.696 3.736a3.515 3.515 0 0 0 1.017 2.681 3.538 3.538 0 0 0 2.68 1.04 3.283 3.283 0 0 0 2.961-1.623l1.94 1.121a5.65 5.65 0 0 1-4.902 2.682 5.8 5.8 0 0 1-4.23-1.686 5.764 5.764 0 0 1-1.699-4.215Zm21.161 3.521v2.13H14.11V44.335h6.972v2.13h-4.723v2.41h4.318v2.1h-4.318v2.543h4.805Zm9.826 2.13v-2.13h-4.317v-9.183h-2.233v11.313h6.55Zm10.33-2.13v2.13h-7.054V44.335h6.972v2.13h-4.723v2.41h4.318v2.1h-4.318v2.543h4.805Zm12.346 2.13V44.335h-2.242v6.9l-4.872-6.9h-1.705v11.313h2.242v-6.92l4.872 6.92h1.705Zm11.337-9.183H61.95v9.183h-2.228v-9.183h-3.033v-2.13h8.314v2.13Zm9.025 7.147h-4.46l-.67 2.036h-2.383l3.915-11.313h2.736l3.93 11.313h-2.398l-.67-2.036Zm-.685-2.088-1.527-4.613-1.511 4.618 3.038-.005Zm15.595-7.19v11.314h-1.704l-4.872-6.92v6.92h-2.242V44.335h1.71l4.867 6.9v-6.9h2.241Zm3.276 5.647c.006-3.263 2.661-5.903 5.93-5.898 3.271.006 5.917 2.656 5.911 5.919a5.915 5.915 0 0 1-5.93 5.898 5.87 5.87 0 0 1-4.201-1.721 5.846 5.846 0 0 1-1.71-4.198Zm9.592 0a3.678 3.678 0 0 0-3.715-3.622 3.678 3.678 0 0 0-3.648 3.69 3.678 3.678 0 0 0 3.681 3.658 3.6 3.6 0 0 0 2.65-1.067 3.582 3.582 0 0 0 1.032-2.659Z" fill="#001E45"/></g><defs><clipPath id="a"><path fill="#fff" d="M0 0h104.054v56H0z"/></clipPath></defs></svg>