<?xml version="1.0" encoding="UTF-8" standalone="no"?><!DOCTYPE svg PUBLIC "-//W3C//DTD SVG 1.1//EN" "http://www.w3.org/Graphics/SVG/1.1/DTD/svg11.dtd"><svg width="100%" height="100%" viewBox="0 0 105 56" version="1.1" xmlns="http://www.w3.org/2000/svg" xmlns:xlink="http://www.w3.org/1999/xlink" xml:space="preserve" xmlns:serif="http://www.serif.com/" style="fill-rule:evenodd;clip-rule:evenodd;stroke-linejoin:round;stroke-miterlimit:2;"><g><clipPath id="_clip1"><rect x="0" y="0" width="104.054" height="56"/></clipPath><g clip-path="url(#_clip1)"><path d="M68.35,17.371c-0.01,9.581 -7.8,17.34 -17.4,17.333c-9.602,-0.008 -17.38,-7.778 -17.376,-17.359c0.003,-9.58 7.786,-17.345 17.388,-17.345c9.603,0.003 17.386,7.77 17.389,17.352" style="fill:#ebebec;fill-rule:nonzero;"/><path d="M33.83,14.402c-0.167,0.976 -0.253,1.965 -0.256,2.955c-0.027,8.265 5.792,15.401 13.907,17.056c8.115,1.655 16.273,-2.632 19.498,-10.244l-33.149,-9.767Z" style="fill:#dcddde;fill-rule:nonzero;"/><path d="M39.156,25.828l5.814,-14.125l-5.355,-1.798l1.209,-3.078l9.294,2.984l-4.2,13.53l9.452,2.759l-1.481,4.167l-14.733,-4.438l0,-0.001Z" style="fill:#13913e;fill-rule:nonzero;"/><path d="M49.309,18.933l7.472,-7.349l-4.496,-1.29l1.362,-3.413l9.63,3.063l-6.614,7.373l5.854,1.626l-1.367,3.511l-11.841,-3.521Zm36.961,15.81c-9.614,0 -17.408,-7.778 -17.408,-17.372c-0,-9.594 7.794,-17.371 17.409,-17.371c9.614,-0 17.408,7.777 17.408,17.371c-0.011,9.59 -7.798,17.361 -17.408,17.372l-0.001,0Z" style="fill:#ee2e24;fill-rule:nonzero;"/><path d="M86.27,0c-2.285,-0.002 -4.548,0.448 -6.658,1.325l13.328,32.093c7.67,-3.174 12.027,-11.312 10.405,-19.439c-1.623,-8.127 -8.771,-13.979 -17.074,-13.979l-0.001,-0Z" style="fill:#f68d76;fill-rule:nonzero;"/><path d="M83.16,9.88l6.753,16.254c-3.949,1.67 -9.719,1.906 -13.776,0.177l7.024,-16.43l-0.001,-0.001Z" style="fill:#fff;fill-rule:nonzero;"/><path d="M84.726,5.822l2.27,5.294l2.271,-5.294l-4.541,0Zm8.386,1.738l-2.147,5.35l5.36,-2.148l-3.213,-3.202Zm4.955,7.403l-5.311,2.266l5.31,2.265l0,-4.531l0.001,-0Zm-1.742,8.727l-5.36,-2.142l2.147,5.35l3.213,-3.207l0,-0.001Z" style="fill:#ee2e24;fill-rule:nonzero;"/><path d="M84.726,5.822l2.27,5.294l2.271,-5.294l-4.541,0Zm8.386,1.738l-2.147,5.35l5.36,-2.148l-3.213,-3.202Zm4.955,7.403l-5.311,2.266l5.31,2.265l0,-4.531l0.001,-0Zm-1.742,8.727l-5.36,-2.142l2.147,5.35l3.213,-3.207l0,-0.001Z" style="fill:#ee2e24;fill-rule:nonzero;"/><path d="M14.28,33.943l-14.28,0l0,-14.32c-0,-4.945 1.97,-9.692 5.471,-13.184c3.506,-3.498 8.262,-5.463 13.214,-5.461l14.349,0l-0,14.25c-0,10.341 -8.4,18.724 -18.764,18.724" style="fill:#0dad4a;fill-rule:nonzero;"/><path d="M5.244,24.777l4.542,-18.417c4.277,0.374 7.407,2.493 7.407,7.336c0,6.307 -3.753,8.106 -7.732,8.421l-0.41,3.385l-3.807,-0.724l0,-0.001Z" style="fill:#fff;fill-rule:nonzero;"/><path d="M27.232,0.978l-13.006,32.964l0.054,0c10.363,0 18.764,-8.383 18.764,-18.724l0,-14.24l-5.812,0Z" style="fill:#13913e;fill-rule:nonzero;"/><path d="M21.86,29.488l4.167,-17.408l-2.79,-0.97l-6.636,16.811l5.259,1.567Z" style="fill:#fff;fill-rule:nonzero;"/><path d="M0.002,49.997c-0.041,-1.581 0.571,-3.11 1.691,-4.226c1.122,-1.118 2.655,-1.728 4.238,-1.686c1.991,-0.033 3.857,0.988 4.903,2.682l-1.94,1.121c-0.61,-1.047 -1.752,-1.674 -2.963,-1.627c-2.233,0 -3.696,1.535 -3.696,3.736c-0.057,0.997 0.313,1.973 1.017,2.681c0.706,0.71 1.68,1.088 2.68,1.04c1.209,0.047 2.35,-0.578 2.961,-1.623l1.94,1.121c-1.045,1.694 -2.912,2.715 -4.902,2.682c-1.58,0.038 -3.109,-0.571 -4.23,-1.686c-1.119,-1.113 -1.734,-2.637 -1.699,-4.215Zm21.161,3.521l-0,2.13l-7.053,0l-0,-11.313l6.972,0l-0,2.13l-4.723,0l-0,2.41l4.318,0l-0,2.1l-4.318,0l-0,2.543l4.805,0l-0.001,0Zm9.826,2.13l-0,-2.13l-4.317,0l-0,-9.183l-2.233,0l-0,11.313l6.55,0Zm10.33,-2.13l0,2.13l-7.054,0l0,-11.313l6.972,0l0,2.13l-4.723,0l0,2.41l4.318,0l0,2.1l-4.318,0l0,2.543l4.805,0Zm12.346,2.13l0,-11.313l-2.242,0l0,6.9l-4.872,-6.9l-1.705,0l0,11.313l2.242,0l0,-6.92l4.872,6.92l1.705,0Zm11.338,-9.183l-3.053,0l-0,9.183l-2.228,0l-0,-9.183l-3.033,0l-0,-2.13l8.314,0l-0,2.13Zm9.024,7.147l-4.46,0l-0.67,2.036l-2.383,0l3.915,-11.313l2.736,0l3.93,11.313l-2.398,0l-0.67,-2.036Zm-0.685,-2.088l-1.527,-4.613l-1.511,4.618l3.038,-0.005Zm15.595,-7.19l-0,11.314l-1.704,0l-4.872,-6.92l-0,6.92l-2.242,0l-0,-11.313l1.71,0l4.867,6.9l-0,-6.9l2.241,0l-0,-0.001Zm3.276,5.647c0.006,-3.263 2.661,-5.903 5.93,-5.898c3.271,0.006 5.917,2.656 5.911,5.919c-0.009,3.244 -2.686,5.906 -5.93,5.898c-1.574,0.013 -3.089,-0.608 -4.201,-1.721c-1.111,-1.112 -1.728,-2.626 -1.71,-4.198Zm9.592,0c-0.031,-2.011 -1.704,-3.642 -3.715,-3.622c-2.011,0.016 -3.655,1.679 -3.648,3.69c0.011,2.011 1.67,3.66 3.681,3.658c0.992,0.025 1.952,-0.361 2.65,-1.067c0.697,-0.705 1.071,-1.668 1.032,-2.659Z" style="fill:#001e45;"/></g></g></svg>