<?xml version="1.0" encoding="UTF-8" standalone="no"?><!DOCTYPE svg PUBLIC "-//W3C//DTD SVG 1.1//EN" "http://www.w3.org/Graphics/SVG/1.1/DTD/svg11.dtd"><svg width="100%" height="100%" viewBox="0 0 400 400" version="1.1" xmlns="http://www.w3.org/2000/svg" xmlns:xlink="http://www.w3.org/1999/xlink" xml:space="preserve" xmlns:serif="http://www.serif.com/" style="fill-rule:evenodd;clip-rule:evenodd;stroke-linejoin:round;stroke-miterlimit:2;"><g id="changes"><g id="KFC_LOGO"><g id="Group-4"><path id="Fill-1" d="M47.488,397.56c-8.439,-0 -15.57,-6.579 -16.235,-14.975l-28.763,-362.534c-0.358,-4.501 1.195,-8.987 4.261,-12.306c3.074,-3.328 7.44,-5.237 11.974,-5.237l362.476,0c4.536,0 8.899,1.909 11.973,5.236c3.066,3.319 4.621,7.806 4.264,12.307l-28.764,362.534c-0.666,8.397 -7.798,14.975 -16.236,14.975l-304.95,-0" style="fill:#fffffe;"/><path id="Fill-3" d="M381.201,4.947c8.079,0 14.442,6.874 13.805,14.911l-28.763,362.535c-0.57,7.187 -6.581,12.729 -13.805,12.729l-304.95,-0c-7.225,-0 -13.235,-5.542 -13.805,-12.729l-28.763,-362.535c-0.638,-8.037 5.726,-14.911 13.805,-14.911l362.476,0Zm0,-4.878l-362.476,0c-5.213,0 -10.229,2.195 -13.763,6.021c-3.528,3.817 -5.314,8.977 -4.903,14.154l28.763,362.534c0.765,9.656 8.964,17.222 18.666,17.222l304.95,0c9.702,0 17.901,-7.566 18.668,-17.222l28.763,-362.534c0.41,-5.177 -1.378,-10.337 -4.904,-14.154c-3.534,-3.826 -8.551,-6.021 -13.764,-6.021Z" style="fill:#0a0b09;"/></g><path id="Fill-5" d="M237.655,323.445c-1.087,-0 -1.933,-0.944 -1.813,-2.024c0.02,-0.183 0.024,-0.242 0.024,-0.243c0.297,-4.541 -1.258,-7.203 -6.357,-7.203l-15.773,0.018l-4.216,19.219l22.58,-0c1.162,-0 2.025,1.076 1.774,2.21l-2.199,9.91c-0.184,0.832 -0.922,1.421 -1.77,1.421l-23.385,0c0,0 -2.598,11.775 -2.691,12.283c-0.87,3.801 1.728,5.775 3.47,6.623c0.089,0.042 0.177,0.083 0.267,0.123c0.747,0.335 1.157,1.147 0.979,1.946l-1.201,5.417c-0.183,0.827 -0.917,1.417 -1.764,1.417l-27.497,-0c-1.153,-0 -2.01,-1.068 -1.762,-2.195l11.978,-54.268c1.221,-4.788 -1.581,-6.736 -3.594,-7.504c-0.069,-0.025 -0.138,-0.049 -0.204,-0.074c-0.9,-0.319 -1.42,-1.259 -1.212,-2.193l1.057,-4.776c0.201,-0.907 1.006,-1.552 1.936,-1.552l61.136,0c1.16,0 2.023,1.075 1.772,2.208l-3.955,17.819c-0.185,0.828 -0.918,1.418 -1.767,1.418l-5.813,-0m-91.952,-19.904c0.199,-0.9 0.997,-1.541 1.92,-1.541l29.897,0c1.164,0 2.03,1.079 1.776,2.216l-1.013,4.595c-0.175,0.779 -0.82,1.334 -1.613,1.419c-0.138,0.015 -0.224,0.024 -0.226,0.024c-2.252,0.3 -6.32,1.033 -9.654,3.641l-24.852,20.668c-0.002,0.002 -0.002,0.005 -0.001,0.007l19.125,25.883c3.707,4.767 5.535,5.63 9.262,5.687c1.223,0.024 2.101,1.171 1.836,2.363l-1.043,4.654c-0.184,0.821 -0.912,1.405 -1.753,1.405l-14.894,-0c-16.493,0.002 -21.046,-7.232 -34.784,-32.348c-0.004,-0.006 -0.011,-0.005 -0.012,0.001l-4.011,18.322c-0.609,2.847 1.775,4.355 3.523,5.064c0.076,0.033 0.152,0.061 0.222,0.088c0.836,0.328 1.309,1.215 1.113,2.089l-1.19,5.371c-0.184,0.825 -0.915,1.413 -1.759,1.413l-34.513,-0c-1.214,-0 -2.114,-1.124 -1.852,-2.308l1.015,-4.591c0.183,-0.834 0.878,-1.457 1.725,-1.549c0.035,-0.006 0.068,-0.009 0.101,-0.013c3.163,-0.365 6.481,-2.363 8.529,-12.15l7.826,-35.83c1.007,-4.774 -1.38,-6.589 -3.438,-7.396c-0.018,-0.006 -0.139,-0.05 -0.328,-0.113c-0.943,-0.321 -1.496,-1.303 -1.279,-2.277l1.064,-4.786c0.2,-0.906 1.003,-1.549 1.929,-1.549l32.827,-0c1.148,-0 2.002,1.062 1.754,2.184l-1.046,4.723c-0.152,0.69 -0.663,1.247 -1.34,1.455c-0.081,0.026 -0.166,0.051 -0.25,0.078c-1.536,0.5 -3.966,1.759 -4.712,4.819l-4.373,19.94c-0.001,0.006 0.006,0.011 0.012,0.006l25.462,-21.161c1.527,-1.259 1.138,-2.943 -0.613,-3.617c-0,0 -0.005,-0.001 -0.011,-0.003c-0.995,-0.302 -1.591,-1.32 -1.365,-2.335l1.007,-4.548m171.523,-0.039c1.092,0.301 1.754,1.407 1.507,2.514l-3.873,17.43c-0.185,0.83 -0.922,1.422 -1.773,1.422l-5.51,0c-1.04,0 -1.869,-0.873 -1.814,-1.912c0.013,-0.226 0.015,-0.319 0.015,-0.324c0.264,-5.682 -3.325,-9.932 -11.447,-9.931c-13.503,0.003 -23.324,11.082 -24.611,25.638c-1.328,15.03 9.175,23.764 23.72,23.762c7.456,-0.001 13.36,-1.44 16.669,-2.488c1.314,-0.415 2.596,0.723 2.337,2.078l-1.71,9.006c-0.145,0.769 -0.7,1.394 -1.446,1.63c-2.98,0.949 -11.349,3.18 -24.157,3.182c-30.432,0.005 -42.78,-17.5 -40.867,-35.343c1.699,-15.892 12.212,-39.298 53.669,-39.305c7.938,-0.001 14.289,1.27 19.291,2.641m-52.306,-182.969c-1.64,8.723 -3.474,13.101 -4.652,18.483c-1.222,5.596 -3.626,13.777 -5.959,13.989c-2.357,0.709 -3.304,-2.017 -4.817,0.001c-0.902,1.201 -1.6,2.787 -2.404,3.81c-0.511,0.671 -1.019,2.165 -1.026,2.979c-0,1.575 -0.087,6.66 -1.496,13.328c-2.124,10.064 -5.984,17.395 -9.996,22.023c-7.682,8.861 -14.878,10.287 -15.734,10.739c-1.1,0.583 -2.768,0.239 -3.313,-0.023c-0.553,-0.251 -0.976,-0.916 -1.926,-1.845c-0.98,-0.916 -1.321,0.477 -1.357,0.833c-0.038,0.333 0.497,4.526 -0.572,6.422c-2.303,4.081 -4.519,4.435 -5.753,9.517c-0.415,1.716 -0.125,4.308 -2.175,3.134c-5.01,-2.862 -12.189,-10.611 -13.675,-18.125c-0.452,-2.287 -0.029,-4.839 1.366,-9.189c0.806,-2.554 1.379,-5.396 1.379,-7.033c-0,-2.904 -1.135,-5.366 -0,-5.618c2.104,-0.467 3.062,4.978 4.04,4.414c1.699,-0.979 0.437,-6.729 0.437,-6.729c-0,0 -0.698,-1.635 -3.678,-2.335c-1.715,-0.401 -2.254,-1.684 -0.425,-2.582c1.365,-0.67 2.95,-1.55 4.799,-1.273c12.353,1.75 15.908,-0.732 20.904,-2.081c0.981,-0.259 1.559,-0.374 2.327,-0.01c0.763,0.354 2.814,1.476 3.232,2.53c0.422,1.044 -0.016,5.143 0.639,8.227c0.668,3.099 2.845,0.284 3.385,-0.941c0.548,-1.215 1.108,-4.211 1.221,-4.973c0.12,-0.758 0.756,-3.945 1.899,-4.894c2.264,-1.879 3.06,-4.349 3.426,-5.314c0.374,-0.968 0.964,-3.948 0.859,-8.303c-0.108,-4.347 -0.894,-4.818 -1.943,-5.751c-1.038,-0.932 -2.283,-0.752 -4.93,-3.176c-2.36,-2.165 -4.304,-5.663 -6.011,-7.866c-1.713,-2.196 -4.551,-4.557 -7.792,-5.35c-3.227,-0.778 -1.887,2.199 -1.714,3.035c0.136,0.59 0.895,3.232 -0.182,4.102c-1.054,0.869 -7.583,5.258 -13.406,3.736c-6.94,-1.813 -9.338,-5.675 -9.481,-9.408c-0.099,-2.644 1.168,-5.195 2.748,-8.226c0.926,-1.773 1.299,-4.731 1.671,-7.569c0.296,-2.271 0.904,-5.554 1.398,-6.721c0.356,-0.843 1.192,-1.759 3.075,-1.65c1.862,0.104 3.083,1.031 3.424,2.637c1.206,5.583 3.174,6.992 3.84,7.445c0.675,0.45 1.934,-0.453 2.425,-0.779c0.497,-0.322 1.76,-1.599 1.363,-2.284c-0.603,-1.061 -0.936,-1.698 -1.069,-2.32c-0.23,-1.062 1.099,-0.933 1.368,-0.721c2.176,1.714 4.227,1.865 7.986,2.491c6.576,1.096 7.52,-1.328 12.037,-0.544c0.586,0.102 1.7,0.591 2.064,1.269c0.299,0.58 0.849,1.915 1.4,2.149c0.548,0.212 1.889,0.295 2.58,0.419c0.956,0.161 2.669,0.055 2.381,1.822c-0.736,4.735 -6.201,6.041 -8.755,6.48c-1.054,0.181 -1.538,0.268 -1.709,0.418c-0.553,0.486 -0.574,1.969 0.063,2.927c0.451,0.674 2.517,0.717 5.344,0.174c2.949,-0.566 5.782,-1.99 8.018,-5.476c2.37,-3.692 3.673,-11.821 3.948,-13.34c0.268,-1.516 0.876,-4.056 1.712,-4.576c0.826,-0.52 4.674,-1.689 5.216,-1.594c0.646,0.112 1.116,0.424 1.42,1.912c0.303,1.504 -0.262,10.461 -0.273,11.812c-0.015,1.441 0.723,1.428 1.135,1.239c0.898,-0.414 3.293,-2.01 3.835,-3.855c0.401,-1.37 -0.753,-3.364 -0.173,-5.257c0.903,-2.953 1.792,-3.739 2.407,-3.681c3.755,0.359 4.524,2.004 3.625,6.774m-53.217,48.3c-1.395,0.51 -5.427,1.448 -7.379,1.566c-1.97,0.11 -8.213,0.534 -9.262,0.484c-1.286,-0.074 -3.024,-0.702 -4.437,-1.993c-0.285,-0.262 -0.594,-1.163 0.559,-1.184c2.142,-0.038 5.757,-1.18 18.208,-0.127c1.331,0.11 1.961,0.168 2.276,0.199c0.327,0.033 1.429,0.561 0.035,1.055m-30.622,-5.058c-6.061,-0.076 -8.865,-2.334 -9.298,-3.009c-0.417,-0.653 0.282,-1.161 0.915,-1.363c1.432,-0.454 3.974,-1.739 5.006,-2.523c1.036,-0.773 3.893,-2.552 5.334,-3.479c0.679,-0.444 4.576,-2.14 6.855,-0.552c3.419,2.386 6.613,3.98 12.461,3.623c3.763,-0.231 3.679,-3.267 6.74,-4.234c2.766,-0.871 3.297,-1.55 4.163,-2.057c1.118,-0.223 1.942,-0.505 3.154,0.623c1.536,1.43 2.092,2.558 3.87,4.567c2.433,2.747 5.117,4.027 5.949,4.19c0.826,0.17 1.421,0.842 1.43,1.12c0.007,0.272 -0.332,1.127 -2.786,1.828c-8.191,2.347 -17.06,0.843 -21.626,-0.982c-2.318,-0.925 -4.57,-1.178 -7.114,0.071c-2.562,1.256 -9.397,2.246 -15.053,2.177m-2.912,33.691c-4.643,0.143 -16.779,-7.182 -22.074,-27.973c-1.373,-5.348 1.999,-9.687 4.09,-10.433c1.237,-0.453 1.888,-0.596 2.304,-0.652c0.429,-0.054 2.543,-0.041 2.47,2.346c-0.073,1.935 1.533,18.058 5.741,23.893c1.044,1.447 2.01,1.5 2.489,0.222c0.44,-1.188 1.171,-2.718 1.406,-3.3c0.172,-0.42 1.704,-2.761 2.158,-0.984c0.965,3.777 3.227,11.548 4.179,13.555c1.577,3.328 -1.022,3.271 -2.763,3.326m-24.396,-62.042c-0.326,-1.4 0.297,-3.496 3.595,-1.382c0.528,0.34 2.077,1.043 3.799,1.537c1.042,0.301 1.719,-0.138 2.012,-0.896c0.306,-0.751 1.161,-2.25 -0.306,-2.969c-1.461,-0.73 -5.075,-1.358 -7.137,-6.437c-0.371,-0.906 0.253,-1.949 0.833,-2.217c0.587,-0.262 1.311,-0.13 1.987,0.512c0.671,0.63 2.113,2.02 3.403,2.071c1.189,0.057 1.383,-0.426 1.624,-0.705c0.998,-1.122 3.862,-5.309 9.799,-4.582c2.447,0.3 4.706,0.844 5.53,0.906c0.587,0.038 2.216,0.111 3.776,-0.182c1.778,-0.332 4.432,-0.884 3.133,0.618c-1.056,1.218 -1.938,1.725 -1.013,3.048c0.047,0.068 0.095,0.132 0.139,0.195c0.835,1.174 0.857,2.738 0.009,3.901l-0.103,0.15c-1.312,1.704 -4.025,3.666 -9.633,4.022c-2.556,0.161 -2.715,0.068 -2.77,1.529c-0.02,0.564 -0.012,0.861 0.069,1.254c0.154,0.735 0.625,1.04 2.399,1.15c1.286,0.08 3.64,-0.173 3.644,-0.174c0.578,-0.174 1.26,0.195 0.888,0.676c-0.058,0.073 -0.293,0.425 -0.335,0.479c-1.272,1.645 -1.669,3.148 -1.787,4.046c-0.101,0.76 -0.54,1.441 -1.213,1.791c-0.01,0.004 -0.017,0.008 -0.027,0.013c-0.819,0.42 -4.127,1.135 -6.732,3.285c-2.592,2.15 -8.01,3.922 -10.339,1.28c-2.332,-2.636 -4.231,-8.531 -5.244,-12.919m-1.683,-26.046c-0.73,0.078 -1.347,-0.367 -2.143,-0.539c-0.923,-0.201 -1.487,0.08 -1.87,-0.427c-0.338,-0.523 -0.276,-1.015 0.251,-1.215c0.526,-0.198 0.91,-0.05 1.442,-0.153c1.083,-0.205 2.402,-1.444 3.379,-0.069c0.631,0.892 0.09,2.279 -1.059,2.403m-8.999,33.042c-2.342,-1.559 -2.216,-3.602 -2.811,-5.61c-1.264,-4.261 -2.623,-9.393 -3.797,-13.756c-0.711,-2.638 -0.892,-8.829 2.69,-8.829c1.804,0 3.149,0.566 3.726,2.265c1.284,3.782 -1.134,3.124 -0.515,7.592c0.441,3.16 1.044,6.275 2.042,11.644c0.459,2.473 1.265,8.426 -0.909,6.978m-7.323,-61.004c1.306,-3.533 3.679,-6.542 5.3,-8.668c1.483,-1.945 0.782,-4.511 0.025,-6.811c-0.491,-2.117 -1.852,-4.308 -2.06,-4.888c-0.151,-0.405 -0.154,-0.732 -0.025,-1.019c0.097,-0.065 0.177,-0.118 0.277,-0.182l2.867,-0.245c8.206,-1.05 15.443,-3.931 17.629,-5.159c1.076,-0.603 2.219,-1.078 3.388,-1.475c1.37,-0.464 2.787,-0.931 4.206,-1.118c1.073,-0.175 2.344,-0.341 3.432,-0.461c1.622,-0.185 4.187,0.953 3.618,1.29c-1.375,0.824 -7.751,2.299 -13.36,8.996c-3.438,4.095 -4.236,6.629 -5.395,8.515c-1.174,1.892 -2.114,2.342 -3.764,3.768c-0.807,0.688 -2.451,2.13 -3.257,4.424c-0.814,2.315 -3.947,10.393 -4.355,23.221c-0.045,1.49 -0.304,3.063 -1.715,3.603c-0,-0 -0.008,0.002 -0.011,0.004c-1.159,0.469 -2.099,1.236 -2.293,0.4c-0.744,-2.816 -2.47,-8.888 -3.192,-12.735c-0.229,-1.213 -0.498,-2.413 -0.785,-3.614c-0.786,-3.277 -1.142,-6.189 -0.53,-7.846m24.955,31.194c-1.492,0.948 -2.954,2.044 -4.066,2.763c-1.357,0.896 -3.266,0.037 -2.708,-1.865c0.274,-0.925 1.588,-3.294 3.795,-3.714c0.289,-0.058 1.382,-0.267 2.298,-0.377c1.069,-0.114 2.207,-0.212 2.787,-0.237c1.565,-0.067 1.735,1.187 0.675,1.835c-0.704,0.433 -1.79,0.969 -2.781,1.595m2.058,2.804c0.4,-0.326 0.575,-0.327 1.921,-1.067c0.958,-0.53 2.05,-1.186 3.154,-1.901c1.999,-1.3 5.783,-2.644 7.39,-2.628c1.161,0.014 3.19,0.515 4.269,1.692c1.128,1.229 1.436,2.659 -0.035,2.411c-1.457,-0.251 -3.005,-0.644 -5.81,-0c-3.137,0.716 -5.267,1.919 -6.78,2.596c-1.548,0.717 -3.115,0.889 -3.634,0.865c-0.499,-0.033 -1.924,-0.796 -0.475,-1.968m23.167,27.785c0.366,0.672 0.485,1.804 0.38,2.27c-0.108,0.572 -2.118,1.32 -3.79,-1.178c-1.669,-2.485 -0.886,-5.541 0.107,-6.741c1.573,-1.926 3.98,-0.527 3.634,0.186c-1.205,2.47 -0.669,4.794 -0.331,5.463m50.162,-24.392c-0.615,0.311 -2.936,-0.468 -3.578,-0.828c-1.283,-0.719 -2.197,-1.229 -3.925,-2.704c-1.146,-0.968 -3.232,-1.424 -5.211,-1.329c-1.513,0.074 -3.02,0.399 -4.182,0.67c-1.146,0.276 -1.233,-0.765 -0.892,-1.158c0.344,-0.391 1.952,-1.866 5.463,-2.785c0.511,-0.134 1.5,-0.09 1.998,-0.036c1.464,0.164 3.216,1.138 4.477,2.362c1.26,1.234 3.809,3.405 5.188,4.245c0.655,0.394 2.116,0.82 0.662,1.563m-1.434,-5.806c0,-0 -2.171,-1.483 -2.866,-2.689c-0.342,-0.596 -0.264,-1.094 0.655,-1.102c3.255,-0.033 6.236,-0.111 7.687,1.107c1.056,0.888 1.085,2.744 0.567,3.942c-0.599,1.368 -1.792,0.98 -2.473,0.882c-0.681,-0.103 -3.57,-2.14 -3.57,-2.14m16.318,-4.873c-0.493,0.532 -0.929,0.212 -1.945,0.464c-0.792,0.194 -1.319,0.641 -2.048,0.575c-1.153,-0.104 -1.72,-1.481 -1.105,-2.384c0.953,-1.392 2.296,-0.179 3.381,0.011c0.533,0.093 0.915,-0.063 1.445,0.126c0.53,0.188 0.603,0.679 0.272,1.208m-93.842,-62.919c0.498,-0.77 1.705,-1.894 2.912,-2.766c1.264,-0.904 7.482,-5.563 13.259,-7.322c1.071,-0.319 1.345,-0.48 2.029,-0.645c0.866,-0.226 1.6,-2.09 -0.202,-2.362c-1.893,-0.273 -2.663,-0.15 -3.671,-0.117c-1.009,0.023 -1.495,-0.518 -0.764,-1.312c0.744,-0.798 2.083,-1.612 4.438,-2.557c5.143,-2.048 14.257,-3.143 18.508,-3.52c5.546,-0.478 6.217,-0.461 9.824,-0.183c3.381,0.255 6.033,0.884 7.288,1.106c6.364,1.151 13.697,4.099 20.216,7.678c3.432,2.035 6.738,4.309 9.816,6.708c9.34,7.281 20.068,21.13 18.502,50.301c-0.186,3.444 -0.594,5.354 -0.819,6.185c-0.233,0.845 -1.351,2.286 -1.943,0.379c-1.929,-6.241 -4.412,-17.242 -10.059,-25.929c-0.785,-1.211 -1.999,-1.098 -1.879,0.178c0.045,0.532 0.306,6.096 0.168,7.171c-0.915,7.166 1.28,4.375 4.514,12.063c1.002,2.378 2.29,7.079 2.613,10.111c0.084,0.762 0.187,1.647 0.206,2.494c0.022,1.071 -0.509,1.143 -0.509,1.143c-2.213,-0.008 -6.069,-1.058 -8.151,-1.124c-2.366,-0.076 -18.792,-0.242 -24.965,0.245c-6.177,0.47 -9.544,2.694 -13.041,5.557c-0.58,0.475 -1.407,0.919 -1.872,1.152c-0.234,0.117 -0.495,0.152 -0.75,0.107c-0.284,-0.05 -0.745,-0.136 -1.475,-0.288c-1.509,-0.31 -3.333,-0.433 -4.807,0.018c-1.472,0.441 -2.166,0.821 -3.757,-0.102c-2.266,-1.324 -5.741,-6.613 -17.868,-6.711c-6.872,-0.054 -15.884,-0.147 -21.19,0.087c-1.715,0.075 -2.61,0.268 -3.05,0.257c-0.037,-0.202 -0.046,-0.483 -0.048,-0.537c-0.089,-9.684 6.23,-7.537 6.954,-10.053c1.805,-6.272 2.227,-21.359 13.181,-30.621c5.237,-4.427 7.96,-4.612 12.819,-4.612c5.238,-0 10.347,1.366 12.953,2.658c2.074,1.024 3.102,1.71 3.917,1.106c0.814,-0.619 2.994,-2.595 3.892,-3.273c0.903,-0.693 0.563,-1.768 -0.289,-2.473c-0.819,-0.663 -8.591,-10.437 -20.503,-12.407c-2.729,-0.454 -4.745,-0.868 -7.224,-0.874c-1.34,-0.05 -2.529,-0.057 -5.642,0.321c-4.559,0.553 -10.52,3.091 -14.356,4.613c-0.207,-0.22 0.586,-1.506 0.825,-1.85m-3.935,135.829c0.119,5.002 3.018,18.208 19.792,30.739c6.995,5.224 10.203,7.581 11.125,8.221l-0.004,0.038c0.461,0.322 -2.48,0.247 -3.289,0.325c-1.314,0.125 -5.786,-0.281 -9.367,0.382c-3.23,0.596 -2.791,1.374 -3.112,3.711c-0.255,1.852 -0.016,4.787 -0.108,7.29c-0.097,2.501 -0.234,4.28 0.826,5.491c1.045,1.19 1.705,1.381 6.138,1.106c4.217,-0.258 15.893,-0.266 17.3,-0.552c1.806,-0.37 1.518,0.285 0.477,2.519c-1.783,3.828 -7.599,21.377 -16.637,38.052c-1.267,2.336 2.296,1.231 5.336,2.697c5.497,2.651 5.317,3.39 6.761,0.623c1.566,-2.997 9.497,-21.665 10.726,-27.429c0.158,-0.752 0.481,-1.403 0.605,-0.274c0.088,0.814 0.205,24.396 -0.453,31.835c-0.034,0.394 0.061,0.805 0.337,1.089c0.397,0.407 0.995,0.577 1.503,0.695l0.015,-0c2.73,-0.912 6.036,-1.582 8.842,-1.118c0.25,-0.029 0.487,-0.083 0.715,-0.155c0.15,-0.126 0.286,-0.273 0.382,-0.45c0.219,-0.395 0.331,-0.843 0.429,-1.282c0.008,-0.034 0.016,-0.067 0.022,-0.103c0.137,-0.627 0.249,-1.262 0.317,-1.9c0.039,-0.378 0.066,-0.757 0.09,-1.137c0.03,-0.489 0.052,-0.982 0.068,-1.474c0.022,-0.593 0.036,-1.187 0.045,-1.779c0.009,-0.685 0.014,-1.37 0.014,-2.055c-0,-0.763 -0.008,-1.531 -0.019,-2.296c-0.013,-0.835 -0.032,-0.556 -0.056,-1.391c-0.026,-0.893 -0.059,-1.787 -0.097,-2.679c-0.04,-0.942 -0.086,-1.884 -0.141,-2.827c-0.054,-0.979 -0.116,-1.957 -0.186,-2.937c-0.072,-1.005 -0.151,-2.011 -0.241,-3.017c-0.089,-1.022 -0.186,-2.043 -0.294,-3.064c-0.109,-1.027 -0.227,-2.053 -0.355,-3.078c-0.128,-1.022 -0.266,-2.041 -0.417,-3.059c-0.148,-1.007 -0.308,-2.011 -0.483,-3.011c-0.17,-0.978 -0.354,-1.399 -0.553,-2.372c-0.194,-0.941 -0.401,-1.879 -0.627,-2.813c-0.216,-0.892 -0.45,-1.781 -0.705,-2.665c-0.204,-0.7 -0.419,-1.399 -0.65,-2.097c-0.041,-0.111 -0.23,-1.068 -0.204,-1.191c0.07,-0.345 0.504,-0.097 0.978,-0.188c-0,-0 0.222,-0.042 0.348,-0.062c3.001,-0.403 8.226,-0.134 9.406,-0.085c1.162,0.034 7.101,0.6 8.775,0.754c1.661,0.159 3.679,0.546 3.59,-4.498c-0.024,-1.345 -0.028,-2.145 -0.024,-3.399c0.002,-0.169 0.002,-0.345 0.002,-0.511c0.005,-0.318 0.006,-0.632 0.009,-0.933c0.005,-0.185 0.005,-0.352 0.01,-0.53c0.001,-0.172 0.003,-0.343 0.005,-0.507c0.002,-0.154 0.006,-0.312 0.008,-0.456c0.01,-0.273 0.015,-0.535 0.026,-0.775c0.002,-0.076 0.002,-0.144 0.006,-0.216c0.002,-0.184 0.01,-0.351 0.019,-0.506c0.002,-0.078 0.005,-0.154 0.01,-0.227c0.005,-0.143 0.014,-0.258 0.019,-0.363c0.004,-0.034 0.004,-0.083 0.009,-0.113c0.014,-0.151 0.021,-0.316 0.027,-0.494c0.039,-1.23 -0.121,-3.484 -2.451,-4.084c-2.684,-0.671 -7.403,-0.832 -11.648,-0.463c-0.592,0.053 -0.723,0 -0.541,-0.166l0.005,-0.038c0.914,-0.651 7.041,-4.037 14.051,-10.311c7.711,-6.917 11.39,-10.594 13.748,-15.599c0,0 8.439,-16.372 8.015,-30.237c-0.085,-2.8 0.366,-2.565 2.108,-2.514c0.522,0.015 2.517,-0.124 3.59,-0.836c3.58,-0.816 6.742,-13.037 6.742,-13.037c0,0 5.377,-18.56 6.68,-26.15c1.16,-6.752 0.886,-10.697 -3.234,-12.701l-0.689,-0.39c-0.31,-0.176 -0.464,-0.539 -0.37,-0.883c0.079,-0.287 0.165,-0.624 0.207,-0.877c2.013,-6.994 5.612,-15.847 4.796,-19.435c-0.141,-1.031 -1.016,-1.366 -1.318,-1.572c-0.42,-0.282 -2.016,-2.062 -2.46,-3.314c-0.065,-0.183 -0.09,-0.374 -0.107,-0.566c-1.135,-13.206 -5.829,-29.774 -19.807,-44.202c-0.021,-0.014 -0.961,-0.877 -1.534,-1.399c-1.198,-1.079 -2.728,-2.419 -4.49,-3.74c-3.722,-2.783 -6.693,-4.918 -12.814,-7.974c-0.473,-0.233 -5.07,-2.325 -11.863,-3.987c-0.636,-0.17 -1.277,-0.336 -1.924,-0.488c-0.998,-0.235 -2.557,-0.523 -4.333,-0.765c-4.186,-0.656 -8.834,-1.007 -13.667,-0.71l0,0.002c-0.575,0.028 -1.248,0.063 -1.426,0.065c-0.288,0.004 -0.592,0.019 -0.887,0.031c-0.328,0.013 -0.649,0.019 -0.991,0.033c-1.022,0.049 -2.371,0.204 -3.787,0.405c-2.286,0.331 -4.738,0.788 -6.249,1.143c-1.69,0.411 -3.97,0.887 -6.819,1.703c-1.17,0.341 -2.348,0.705 -3.519,1.085c-0.33,0.104 -0.659,0.206 -0.985,0.312c-1.265,0.417 -2.537,0.849 -3.822,1.312c-0.932,0.326 -4.893,2.042 -5.755,2.439c-0.413,0.192 -0.982,0.436 -1.597,0.685c-2.792,0.884 -3.379,2.5 -3.48,3.386c-0.065,0.572 -0.194,1.137 -0.438,1.657c-4.023,8.55 -13.486,9.379 -17.244,9.566c-0.982,0.047 -1.851,0.191 -1.54,1.146c0.801,2.455 5.227,7.033 7.936,7.864c-0.039,0.392 -2.32,0.886 -2.799,1.014c-1.091,0.284 -5.575,-0.11 -5.798,-0.065c-0.019,0.001 -0.034,0.004 -0.053,0.005c-5.086,0.428 -6.648,3.893 -7.104,5.534c-0.142,0.51 -0.061,1.058 0.231,1.501c1.122,1.711 2.303,3.105 3.193,5.363c0.01,0.023 0.02,0.049 0.028,0.074c0.231,0.594 0.443,1.25 0.627,1.984c0.108,0.968 0.882,1.976 -0.097,3.874c-1.734,3.361 -6.07,4.412 -6.718,7.752c-0.924,4.749 0.715,7.856 2.511,15.704c1.233,5.381 2.564,10.942 3.517,13.464c0.05,0.133 -0.028,0.271 -0.167,0.298c-0.382,0.072 -1.042,0.211 -1.264,0.285c-2.512,1 -3.301,2.977 -3.588,6.845c-0.63,8.55 5.684,21.744 7.641,33.046c0.659,3.813 2.416,9.925 5.34,12.427c0.675,0.578 2.087,0.947 2.961,1.1c2.286,0.396 3.279,-1.05 3.409,1.246c0.028,0.477 0.19,1.765 0.211,2.493c0.392,8.111 4.74,16.161 4.74,16.161" style="fill:#0a0b09;"/><path id="Fill-6" d="M102.42,15.276l-80.258,-0c-3.919,-0 -7.006,3.343 -6.7,7.251l20.54,258.758l66.418,-0l-0,-266.009" style="fill:#d02431;"/><path id="Fill-7" d="M377.766,15.276l-80.258,-0l-0,266.009l66.417,-0l20.539,-258.758c0.309,-3.908 -2.779,-7.251 -6.698,-7.251" style="fill:#d02431;"/></g></g></svg>