<?xml version="1.0" encoding="UTF-8" standalone="no"?><!DOCTYPE svg PUBLIC "-//W3C//DTD SVG 1.1//EN" "http://www.w3.org/Graphics/SVG/1.1/DTD/svg11.dtd"><svg width="100%" height="100%" viewBox="0 0 167 84" version="1.1" xmlns="http://www.w3.org/2000/svg" xmlns:xlink="http://www.w3.org/1999/xlink" xml:space="preserve" xmlns:serif="http://www.serif.com/" style="fill-rule:evenodd;clip-rule:evenodd;stroke-linejoin:round;stroke-miterlimit:2;"><g><path d="M46.513,35.449c-3.797,-4.52 2.573,-9.592 4.007,-12.97c0.704,-1.658 0.714,-3.469 1.371,-4.873c2.362,-5.044 5.885,-6.01 10.781,-8.404c3.286,-1.608 6.066,-4.019 10.192,-4.723c0.941,-0.061 2.002,-2.121 3.35,-2.679c2.163,-0.895 9.044,-1.431 12.444,-1.272c0.114,0.005 0.239,0.001 0.352,0.022c2.57,0.469 6.397,0.828 9.446,1.43c2.078,0.41 4.702,1.337 7.634,2.141c2.744,0.752 5.349,1.942 6.527,2.896c1.452,1.176 1.686,3.051 3.554,5.187c1.679,1.918 5.974,3.613 5.508,7.791c-0.42,3.772 -4.047,3.549 -8.081,4.858c-2.046,0.663 -3.579,1.933 -4.731,2.177c-1.453,0.309 -2.843,-0.262 -4.6,0.12c-1.655,0.36 -3.261,1.735 -5.083,2.156c-4.438,1.024 -10.3,0.518 -15.637,1.481c-5.254,0.949 -10.494,2.996 -14.335,3.218c-1.283,0.075 -2.696,-0.393 -3.869,-0.247c-3.216,0.401 -6.437,3.077 -9.982,1.43c-2.142,1.164 -6.738,2.263 -8.848,0.261Zm28.435,-30.423c1.033,5.337 -0.399,18.029 4.042,19.684c2.957,1.101 6.067,-1.902 6.648,-4.536c0.88,-3.989 0.91,-9.462 2.6,-13.06c0.845,-1.801 2.133,-2.152 2.751,-4.371c-5.863,0.073 -12.322,-0.649 -16.041,2.283Zm14.644,3.001c-2.085,4.552 -1.092,10.432 -3.057,14.685c-1.338,2.896 -4.917,4.884 -8.354,3.599c-5.129,-1.917 -3.566,-13.174 -4.719,-20.14c-4.804,1.603 -10.684,3.143 -12.566,8.704c-1.848,5.463 -0.367,14.154 3.197,16.323c3.674,2.236 9.082,0.11 12.77,-0.838c2.926,-0.751 6.006,-1.398 9.656,-1.863c7.404,-0.942 16.208,0.051 18.336,-5.029c1.926,-4.595 1.145,-13.608 -1.059,-16.6c-2.292,-3.111 -6.244,-3.033 -10.37,-3.556c-1.497,1.405 -2.918,2.717 -3.834,4.715Zm16.697,15.119c-0.576,1.303 -0.712,1.812 -0.131,2.058c5.842,0.17 8.931,-3.54 9.047,-8.929c0.143,-6.615 -5.437,-9.883 -10.301,-10.163c2.563,3.27 3.308,11.599 1.385,17.034Zm8.847,-0.262c2.029,-0.793 4.211,-0.531 4.758,-2.589c0.636,-2.395 -1.59,-4.249 -3.177,-5.576c0.002,3.427 -0.618,6.025 -1.581,8.165Zm-60.022,10.635c3.267,0.634 5.41,-0.231 7.819,-0.741c-0.771,-1.567 -2.062,-2.674 -2.878,-4.73c-1.326,-3.345 -1.72,-8.054 -0.996,-12.05c0.237,-1.311 2.03,-3.345 0.966,-4.072c-6.94,1.64 -11.613,15.661 -4.911,21.593Zm-7.792,0.329c0.907,1.708 4.429,1.073 5.655,-0.052c-2.133,-1.522 -1.824,-5.559 -3.019,-8.046c-1.07,2.444 -3.649,4.736 -2.636,8.098Z"/><path d="M109.949,31.248c-0.46,-0.023 -0.814,-0.414 -0.792,-0.874c0.023,-0.461 0.415,-0.815 0.875,-0.792c7.261,0.36 14.573,0.456 21.909,0.456c8.205,0 16.439,-0.12 24.66,-0.12c2.901,0 5.801,0.015 8.698,0.056c0.461,0.006 0.829,0.385 0.823,0.846c-0.007,0.461 -0.385,0.829 -0.846,0.822c-2.887,-0.04 -5.779,-0.055 -8.675,-0.055c-8.205,0 -16.439,0.12 -24.66,0.12c-7.35,-0 -14.69,-0.096 -21.992,-0.459Z"/><path d="M8.033,31.589c-2.093,-0 -4.183,0.015 -6.268,0.056c-0.463,0.009 -0.845,-0.358 -0.854,-0.821c-0.009,-0.462 0.359,-0.844 0.821,-0.853c2.099,-0.041 4.2,-0.056 6.301,-0.056c5.956,0 11.915,0.122 17.848,0.122c5.277,-0 10.533,-0.096 15.747,-0.457c0.462,-0.032 0.861,0.316 0.893,0.777c0.032,0.462 -0.316,0.861 -0.777,0.893c-5.272,0.365 -10.566,0.46 -15.863,0.461c-5.956,-0.001 -11.915,-0.122 -17.848,-0.122Z"/><path d="M1.853,66.237c-0.46,0 -0.833,-0.373 -0.833,-0.834c-0,-0.461 0.373,-0.834 0.833,-0.834l163.54,-0c0.461,-0 0.834,0.373 0.834,0.834c0,0.461 -0.373,0.834 -0.834,0.834l-163.54,0Z"/><path d="M30.101,68.748l0,3.527l-0.634,-0l0,-3.018l-1.209,0l-0,0.897c-0,0.991 -0.095,1.647 -0.554,1.945c-0.175,0.146 -0.372,0.227 -0.7,0.227l-0.066,-0.51c0.125,-0.015 0.263,-0.073 0.35,-0.146c0.328,-0.233 0.365,-0.729 0.365,-1.516l-0,-1.406l2.448,-0Z"/><path d="M34.861,68.748l-0,1.195c0.153,-0.029 0.393,-0.037 0.582,-0.037c0.795,0 1.633,0.248 1.633,1.188c-0,0.365 -0.146,0.62 -0.372,0.809c-0.386,0.328 -1.013,0.408 -1.53,0.408c-0.357,0 -0.685,-0.022 -0.947,-0.051l-0,-3.512l0.634,-0Zm-0,3.082c0.123,0.015 0.262,0.029 0.473,0.029c0.481,0 1.101,-0.16 1.101,-0.751c-0,-0.612 -0.642,-0.743 -1.115,-0.743c-0.168,0 -0.314,0.015 -0.459,0.037l-0,1.428Z"/><path d="M40.945,68.791c0.248,-0.043 0.707,-0.08 1.123,-0.08c0.59,0 1.566,0.095 1.566,0.882c0,0.437 -0.335,0.707 -0.736,0.794l0,0.015c0.518,0.073 0.897,0.364 0.897,0.874c-0,0.926 -1.166,1.042 -1.858,1.042c-0.394,0 -0.802,-0.029 -0.992,-0.043l0,-3.484Zm0.605,3.061c0.182,0.022 0.313,0.029 0.518,0.029c0.43,0 1.071,-0.102 1.071,-0.612c0,-0.51 -0.51,-0.619 -1.122,-0.619l-0.467,-0l0,1.202Zm0.007,-1.625l0.482,-0c0.473,-0 0.961,-0.139 0.961,-0.554c0,-0.35 -0.306,-0.518 -0.947,-0.518c-0.211,0 -0.342,0.015 -0.496,0.03l0,1.042Z"/><path d="M48.407,67.757c0.007,0.218 -0.153,0.393 -0.409,0.393c-0.225,0 -0.386,-0.175 -0.386,-0.393c0,-0.227 0.168,-0.401 0.401,-0.401c0.241,-0 0.394,0.174 0.394,0.401Zm-0.715,4.518l0,-3.527l0.642,-0l-0,3.527l-0.642,-0Z"/><path d="M52.474,68.791c0.247,-0.043 0.706,-0.08 1.122,-0.08c0.59,0 1.566,0.095 1.566,0.882c0,0.437 -0.335,0.707 -0.735,0.794l-0,0.015c0.517,0.073 0.896,0.364 0.896,0.874c-0,0.926 -1.166,1.042 -1.858,1.042c-0.394,0 -0.802,-0.029 -0.991,-0.043l-0,-3.484Zm0.604,3.061c0.183,0.022 0.314,0.029 0.518,0.029c0.43,0 1.071,-0.102 1.071,-0.612c0,-0.51 -0.51,-0.619 -1.122,-0.619l-0.467,-0l0,1.202Zm0.008,-1.625l0.481,-0c0.473,-0 0.962,-0.139 0.962,-0.554c-0,-0.35 -0.307,-0.518 -0.948,-0.518c-0.211,0 -0.342,0.015 -0.495,0.03l-0,1.042Z"/><path d="M61.736,72.144c-0.168,0.087 -0.539,0.211 -1.013,0.211c-1.064,-0 -1.756,-0.729 -1.756,-1.808c-0,-1.085 0.743,-1.872 1.895,-1.872c0.378,-0 0.714,0.095 0.889,0.182l-0.146,0.495c-0.153,-0.087 -0.394,-0.167 -0.743,-0.167c-0.809,-0 -1.247,0.597 -1.247,1.334c0,0.816 0.525,1.318 1.224,1.318c0.365,0 0.605,-0.094 0.788,-0.175l0.109,0.482Z"/><path d="M66.196,68.748l-0,1.195c0.153,-0.029 0.393,-0.037 0.583,-0.037c0.794,0 1.632,0.248 1.632,1.188c-0,0.365 -0.146,0.62 -0.372,0.809c-0.386,0.328 -1.013,0.408 -1.53,0.408c-0.357,0 -0.685,-0.022 -0.948,-0.051l0,-3.512l0.635,-0Zm-0,3.082c0.124,0.015 0.262,0.029 0.473,0.029c0.481,0 1.101,-0.16 1.101,-0.751c-0,-0.612 -0.642,-0.743 -1.116,-0.743c-0.167,0 -0.313,0.015 -0.458,0.037l-0,1.428Z"/><path d="M72.929,68.748l-0,1.529l0.153,0l1.326,-1.529l0.78,-0l-1.538,1.595c0.569,0.059 0.911,0.438 1.188,1.072c0.095,0.233 0.219,0.575 0.379,0.86l-0.67,-0c-0.095,-0.153 -0.219,-0.431 -0.328,-0.722c-0.241,-0.569 -0.569,-0.831 -1.166,-0.831l-0.124,0l-0,1.553l-0.634,-0l-0,-3.527l0.634,-0Z"/><path d="M79.59,67.757c0.008,0.218 -0.153,0.393 -0.408,0.393c-0.226,0 -0.386,-0.175 -0.386,-0.393c-0,-0.227 0.168,-0.401 0.401,-0.401c0.24,-0 0.393,0.174 0.393,0.401Zm-0.714,4.518l0,-3.527l0.641,-0l0,3.527l-0.641,-0Z"/><path d="M88.94,68.748l-0,1.529l0.153,0l1.326,-1.529l0.78,-0l-1.538,1.595c0.568,0.059 0.911,0.438 1.188,1.072c0.095,0.233 0.219,0.575 0.379,0.86l-0.671,-0c-0.094,-0.153 -0.218,-0.431 -0.328,-0.722c-0.24,-0.569 -0.568,-0.831 -1.166,-0.831l-0.123,0l-0,1.553l-0.634,-0l-0,-3.527l0.634,-0Z"/><path d="M94.887,69.899c-0.001,-0.452 -0.015,-0.816 -0.03,-1.152l0.576,0l0.029,0.605l0.015,0c0.262,-0.43 0.678,-0.685 1.253,-0.685c0.853,0 1.494,0.722 1.494,1.793c0,1.268 -0.772,1.894 -1.603,1.894c-0.467,0 -0.875,-0.203 -1.086,-0.553l-0.014,-0l-0,1.916l-0.635,0l0.001,-3.818Zm0.634,0.94c-0,0.095 0.014,0.182 0.029,0.262c0.116,0.445 0.502,0.751 0.961,0.751c0.678,-0 1.072,-0.554 1.072,-1.363c-0,-0.707 -0.372,-1.312 -1.05,-1.312c-0.437,0 -0.845,0.314 -0.969,0.795c-0.022,0.08 -0.043,0.175 -0.043,0.262l-0,0.605Z"/><path d="M102.356,68.748l0.772,2.084c0.08,0.233 0.168,0.51 0.226,0.721l0.015,-0c0.065,-0.211 0.138,-0.481 0.226,-0.736l0.699,-2.069l0.678,-0l-0.962,2.514c-0.459,1.209 -0.772,1.829 -1.21,2.207c-0.313,0.277 -0.626,0.387 -0.787,0.416l-0.16,-0.539c0.16,-0.051 0.372,-0.153 0.561,-0.314c0.175,-0.138 0.393,-0.386 0.539,-0.714c0.029,-0.065 0.051,-0.116 0.051,-0.152c-0,-0.037 -0.014,-0.089 -0.043,-0.168l-1.305,-3.25l0.7,-0Z"/><path d="M111.123,71.429c0,0.306 0.015,0.605 0.058,0.846l-0.583,-0.001l-0.051,-0.444l-0.022,0c-0.197,0.277 -0.576,0.525 -1.078,0.525c-0.714,-0.001 -1.079,-0.503 -1.079,-1.013c0,-0.853 0.758,-1.319 2.121,-1.312l0,-0.073c0,-0.291 -0.08,-0.816 -0.802,-0.816c-0.328,-0 -0.67,0.102 -0.918,0.262l-0.146,-0.422c0.292,-0.19 0.715,-0.314 1.159,-0.314c1.079,0 1.341,0.736 1.341,1.443l0,1.319Zm-0.619,-0.955c-0.7,-0.014 -1.494,0.11 -1.494,0.795c0,0.415 0.276,0.612 0.604,0.612c0.459,-0 0.751,-0.292 0.853,-0.59c0.022,-0.066 0.037,-0.139 0.037,-0.204l0,-0.613Z"/><path d="M117.761,72.144c-0.167,0.087 -0.539,0.211 -1.012,0.211c-1.065,-0 -1.757,-0.729 -1.757,-1.808c0,-1.085 0.744,-1.872 1.895,-1.872c0.379,-0 0.714,0.095 0.889,0.182l-0.146,0.495c-0.153,-0.087 -0.393,-0.167 -0.743,-0.167c-0.809,-0 -1.246,0.597 -1.246,1.334c0,0.816 0.524,1.318 1.224,1.318c0.364,0 0.605,-0.094 0.787,-0.175l0.109,0.482Z"/><path d="M125.626,71.429c0,0.306 0.014,0.605 0.058,0.846l-0.583,-0.001l-0.051,-0.444l-0.022,0c-0.197,0.277 -0.576,0.525 -1.078,0.525c-0.715,-0.001 -1.079,-0.503 -1.079,-1.013c0,-0.853 0.758,-1.319 2.121,-1.312l0,-0.073c0,-0.291 -0.081,-0.816 -0.802,-0.816c-0.328,-0 -0.67,0.102 -0.918,0.262l-0.146,-0.422c0.292,-0.19 0.714,-0.314 1.159,-0.314c1.078,0 1.341,0.736 1.341,1.443l0,1.319Zm-0.62,-0.955c-0.699,-0.014 -1.494,0.11 -1.494,0.795c0,0.415 0.277,0.612 0.605,0.612c0.459,-0 0.751,-0.292 0.853,-0.59c0.022,-0.066 0.036,-0.139 0.036,-0.204l0,-0.613Z"/><path d="M130.369,68.748l0,1.42l1.676,0l0,-1.42l0.634,-0l0,3.527l-0.634,-0l0,-1.597l-1.676,0l0,1.597l-0.634,-0l0,-3.527l0.634,-0Z"/><path d="M137.407,68.748l0,1.486c0,0.561 -0.007,0.911 -0.036,1.414l0.022,0c0.211,-0.423 0.335,-0.671 0.568,-1.079l1.101,-1.821l0.75,-0l0,3.527l-0.612,-0l0,-1.495c0,-0.575 0.015,-0.874 0.044,-1.442l-0.022,-0c-0.226,0.451 -0.379,0.735 -0.583,1.093c-0.335,0.546 -0.721,1.224 -1.1,1.844l-0.736,-0l0,-3.527l0.604,-0Z"/><path d="M65.616,80.614c-0.511,-0.328 -0.847,-0.806 -0.849,-1.342c-0.003,-0.516 0.33,-0.993 0.88,-1.295c0.554,-0.308 1.34,-0.487 2.398,-0.488c0.432,0 0.909,0.031 1.435,0.097c0.197,0.025 0.337,0.205 0.312,0.402c-0.025,0.197 -0.204,0.336 -0.402,0.312c-0.499,-0.063 -0.946,-0.091 -1.345,-0.091c-0.975,-0.002 -1.65,0.172 -2.046,0.396c-0.401,0.23 -0.511,0.465 -0.513,0.667c-0.002,0.214 0.144,0.494 0.52,0.737c0.371,0.24 0.951,0.42 1.707,0.42c0.463,-0 0.991,-0.067 1.576,-0.226c0.192,-0.052 0.389,0.061 0.441,0.253c0.052,0.192 -0.061,0.389 -0.253,0.441c-0.641,0.174 -1.232,0.251 -1.764,0.251c-0.868,-0 -1.581,-0.203 -2.097,-0.534Z"/><path d="M97.913,78.385c-0.195,-0.038 -0.321,-0.228 -0.283,-0.423c0.045,-0.224 0.065,-0.421 0.065,-0.594c-0.001,-0.335 -0.073,-0.571 -0.189,-0.753c-0.117,-0.182 -0.285,-0.323 -0.525,-0.439c-0.478,-0.232 -1.234,-0.319 -2.111,-0.316c-1.203,-0.001 -2.625,0.147 -3.95,0.148l-14.185,-0c-1.2,-0.001 -2.621,-0.119 -3.886,-0.119c-0.714,-0 -1.377,0.038 -1.906,0.149c-0.533,0.109 -0.912,0.294 -1.1,0.521c-0.127,0.153 -0.196,0.324 -0.199,0.591c-0,0.181 0.038,0.406 0.131,0.677c0.064,0.188 -0.037,0.392 -0.225,0.456c-0.188,0.064 -0.393,-0.036 -0.456,-0.224c-0.112,-0.327 -0.169,-0.629 -0.169,-0.909c-0.003,-0.409 0.131,-0.778 0.37,-1.056c0.237,-0.279 0.559,-0.467 0.922,-0.599c0.726,-0.262 1.645,-0.324 2.632,-0.325c1.306,0 2.732,0.119 3.886,0.119l9.339,-0c1.564,-0 3.163,-0.001 4.847,-0c1.272,-0 2.692,-0.148 3.949,-0.148c0.689,0 1.331,0.043 1.891,0.193c0.555,0.15 1.049,0.421 1.352,0.894c0.2,0.313 0.302,0.699 0.301,1.14c-0,0.228 -0.026,0.471 -0.078,0.734c-0.034,0.171 -0.184,0.29 -0.352,0.29c-0.023,-0 -0.047,-0.002 -0.071,-0.007Z"/><path d="M90.922,83.309l-14.185,-0c-1.152,-0.001 -3.248,0.157 -4.872,0.157c-0.817,-0.003 -1.502,-0.033 -1.971,-0.172c-0.158,-0.051 -0.302,-0.108 -0.433,-0.239c-0.171,-0.184 -0.228,-0.393 -0.269,-0.605c-0.038,-0.215 -0.047,-0.442 -0.048,-0.668c0.001,-0.351 0.026,-0.704 0.031,-0.938c-0.005,-0.003 -0.01,-0.006 -0.014,-0.01c-0.156,-0.123 -0.183,-0.349 -0.061,-0.505c0.031,-0.038 0.062,-0.075 0.112,-0.115c0.049,-0.036 0.125,-0.09 0.26,-0.093c0.073,-0.001 0.155,0.024 0.213,0.064c0.059,0.039 0.096,0.085 0.121,0.122c0.047,0.077 0.058,0.131 0.069,0.18c0.018,0.096 0.019,0.179 0.02,0.277c-0.001,0.279 -0.032,0.66 -0.031,1.018c-0.001,0.203 0.01,0.397 0.036,0.542c0.021,0.128 0.062,0.211 0.075,0.228c0,-0 0.001,0 0.001,0c0.003,0.002 0.01,0.007 0.02,0.013c0.022,0.011 0.059,0.026 0.108,0.041c0.098,0.03 0.242,0.058 0.416,0.08c0.349,0.043 0.819,0.061 1.346,0.061c1.585,-0 3.669,-0.156 4.871,-0.157l14.185,-0c1.408,0.001 2.95,0.192 4.211,0.191c0.601,0 1.136,-0.044 1.544,-0.16c0.412,-0.116 0.677,-0.289 0.828,-0.528c0.101,-0.163 0.165,-0.373 0.165,-0.673c0,-0.192 -0.027,-0.419 -0.089,-0.682c-0.046,-0.194 0.074,-0.387 0.267,-0.433c0.194,-0.045 0.387,0.074 0.433,0.268c0.072,0.306 0.109,0.587 0.109,0.847c0.001,0.405 -0.092,0.763 -0.276,1.055c-0.183,0.293 -0.451,0.508 -0.756,0.657c-0.613,0.296 -1.378,0.366 -2.225,0.368c-1.327,-0.001 -2.866,-0.192 -4.211,-0.191Z"/><path d="M97.578,80.729c-0.094,-0.442 -0.157,-0.917 -0.157,-1.397c-0,-0.477 0.062,-0.96 0.224,-1.419c0.065,-0.188 0.271,-0.286 0.458,-0.22c0.187,0.066 0.286,0.271 0.22,0.458c-0.128,0.363 -0.183,0.767 -0.183,1.181c0,0.417 0.056,0.844 0.142,1.247c0.041,0.195 -0.083,0.386 -0.277,0.427c-0.025,0.005 -0.05,0.008 -0.075,0.008c-0.166,0 -0.316,-0.115 -0.352,-0.285Z"/><path d="M69.277,80.938c-0.19,-0.06 -0.296,-0.263 -0.237,-0.456c0.114,-0.374 0.162,-0.783 0.162,-1.204c-0,-0.421 -0.049,-0.853 -0.121,-1.267c-0.034,-0.198 0.096,-0.387 0.292,-0.422c0.195,-0.035 0.382,0.097 0.416,0.295c0.078,0.444 0.132,0.917 0.132,1.394c-0,0.476 -0.053,0.957 -0.194,1.419c-0.048,0.157 -0.19,0.257 -0.344,0.257c-0.035,0 -0.071,-0.005 -0.106,-0.016Z"/><path d="M97.853,81.006c-0.194,-0.043 -0.317,-0.234 -0.274,-0.428c0.042,-0.194 0.234,-0.317 0.428,-0.275c0.527,0.116 0.992,0.166 1.396,0.166c0.788,-0 1.339,-0.191 1.676,-0.436c0.338,-0.249 0.47,-0.538 0.472,-0.807c-0.002,-0.257 -0.121,-0.52 -0.409,-0.742c-0.288,-0.22 -0.753,-0.389 -1.411,-0.389c-0.457,-0 -1.005,0.081 -1.64,0.28c-0.189,0.06 -0.391,-0.046 -0.451,-0.236c-0.059,-0.189 0.047,-0.391 0.236,-0.45c0.694,-0.217 1.313,-0.314 1.855,-0.314c0.779,0 1.404,0.2 1.847,0.536c0.442,0.335 0.693,0.817 0.692,1.315c0.001,0.522 -0.276,1.034 -0.768,1.389c-0.494,0.358 -1.198,0.573 -2.099,0.573c-0.463,-0 -0.979,-0.057 -1.55,-0.182Z"/><path d="M6.743,59.298c3.27,-0.007 6.603,-0.419 9.845,0.168c0.507,0.092 1.018,-0.131 1.164,-0.661c0.128,-0.463 -0.153,-1.073 -0.661,-1.165c-3.427,-0.621 -6.892,-0.244 -10.348,-0.236c-1.221,0.003 -1.221,1.897 0,1.894Z"/><path d="M17.97,43.01c3.143,3.924 3.383,9.291 5.868,13.57c0.253,0.437 0.883,0.523 1.239,0.159c1.797,-1.835 2.484,-4.413 2.94,-6.868c0.477,-2.565 0.647,-5.229 1.507,-7.708c0.334,-0.965 -1.191,-1.375 -1.522,-0.42c-0.81,2.336 -1.011,4.844 -1.428,7.268c-0.397,2.304 -0.917,4.881 -2.613,6.612c0.413,0.054 0.826,0.107 1.239,0.16c-1.267,-2.182 -1.934,-4.625 -2.712,-7.007c-0.804,-2.459 -1.772,-4.847 -3.402,-6.882c-0.269,-0.336 -0.837,-0.279 -1.116,0c-0.329,0.329 -0.269,0.781 -0,1.116Z"/><path d="M31.403,40.954c-0.004,4.402 -0.275,8.968 1.032,13.233c0.356,1.164 2.185,0.667 1.826,-0.504c-1.257,-4.102 -0.968,-8.494 -0.965,-12.729c0.001,-1.221 -1.892,-1.221 -1.893,0Z"/><path d="M5.839,58.16l-0,-20.238c-0,-0.523 0.424,-0.947 0.947,-0.947c0.523,-0 0.947,0.424 0.947,0.947l-0,20.238c-0,0.522 -0.424,0.947 -0.947,0.947c-0.523,-0 -0.947,-0.425 -0.947,-0.947Z"/><path d="M32.101,36.226c1.629,-0 1.629,-2.526 0,-2.526c-1.628,0 -1.628,2.526 0,2.526Z"/><path d="M35.451,41.597c1.891,2.096 3.446,4.5 4.632,7.06c1.116,2.409 1.047,5.231 2.518,7.504c0.308,0.476 1.07,0.545 1.362,-0c2.57,-4.796 4.342,-9.961 6.111,-15.089c0.333,-0.965 -1.192,-1.376 -1.522,-0.42c-1.725,5.002 -3.446,10.036 -5.951,14.712l1.362,0c-0.702,-1.086 -1.015,-2.338 -1.317,-3.581c-0.325,-1.337 -0.643,-2.66 -1.2,-3.923c-1.184,-2.686 -2.917,-5.204 -4.879,-7.379c-0.683,-0.757 -1.796,0.363 -1.116,1.116Z"/><path d="M74.411,77.744l1.517,-0.009c0.206,-0.001 0.31,0.083 0.315,0.252c0.004,0.134 -0.096,0.201 -0.302,0.201c-0.482,0.003 -0.964,0.006 -1.445,0.009l-0.019,0.782l1.209,-0.006c0.205,-0.002 0.31,0.081 0.314,0.249c0.005,0.133 -0.096,0.2 -0.301,0.203l-1.231,0.007l-0.031,1.228l1.356,-0.006c0.205,-0.002 0.31,0.081 0.315,0.249c0.004,0.134 -0.097,0.201 -0.302,0.203l-1.53,0.009c-0.018,-0 -0.034,-0.001 -0.048,-0.004l-0.035,-0c-0.132,-0.003 -0.195,-0.078 -0.191,-0.223l0.073,-2.958c0.002,-0.124 0.071,-0.187 0.205,-0.188c0.031,-0 0.057,0.002 0.081,0.007c0.016,-0.004 0.033,-0.005 0.05,-0.005Z"/><path d="M77.294,80.71c0.327,0.022 0.526,-0.02 0.599,-0.127c0.058,-0.092 0.026,-0.203 -0.096,-0.334c-0.082,-0.088 -0.267,-0.151 -0.555,-0.19c-0.299,-0.044 -0.471,-0.159 -0.516,-0.346c-0.035,-0.145 -0.023,-0.294 0.035,-0.446c0.062,-0.167 0.155,-0.295 0.278,-0.383c0.144,-0.104 0.311,-0.165 0.5,-0.183c0.213,-0.019 0.399,0.011 0.559,0.09c0.209,0.102 0.323,0.219 0.344,0.352c0.013,0.087 -0.014,0.158 -0.081,0.212c-0.083,0.069 -0.209,0.021 -0.378,-0.142c-0.085,-0.082 -0.209,-0.12 -0.374,-0.114c-0.176,0.009 -0.307,0.063 -0.391,0.162c-0.072,0.083 -0.093,0.169 -0.064,0.26c0.026,0.079 0.128,0.128 0.304,0.146c0.138,0.015 0.267,0.05 0.385,0.105c0.16,0.075 0.272,0.15 0.334,0.225c0.148,0.179 0.21,0.359 0.188,0.543c-0.023,0.188 -0.125,0.342 -0.306,0.463c-0.145,0.098 -0.339,0.147 -0.581,0.149c-0.204,0.001 -0.37,-0.016 -0.499,-0.053c-0.078,-0.022 -0.175,-0.065 -0.288,-0.131c-0.102,-0.058 -0.156,-0.131 -0.162,-0.219c-0.006,-0.096 0.025,-0.166 0.092,-0.209c0.082,-0.055 0.175,-0.045 0.28,0.026c0.128,0.087 0.259,0.135 0.393,0.144Z"/><path d="M79.692,77.506c0.148,-0 0.223,0.072 0.223,0.216c-0.003,0.372 -0.01,0.712 -0.02,1.019l0.444,-0.003c0.179,-0.001 0.269,0.072 0.269,0.219c-0,0.149 -0.086,0.223 -0.256,0.223l-0.468,0l-0.037,1.705c-0.002,0.159 -0.081,0.237 -0.238,0.234c-0.132,-0.003 -0.196,-0.082 -0.193,-0.238l0.04,-1.701l-0.514,0c-0.125,0 -0.188,-0.071 -0.188,-0.214c-0,-0.147 0.069,-0.221 0.208,-0.221c0.167,0 0.335,-0 0.504,-0.002l0.025,-1.034c0.003,-0.136 0.069,-0.203 0.201,-0.203l-0,-0Z"/><path d="M81.303,80.684l0.009,0c0.05,0 0.096,0.013 0.138,0.038c0.045,0.026 0.079,0.062 0.103,0.109c0.02,0.039 0.03,0.081 0.03,0.126l0,0.022c-0.004,0.053 -0.022,0.1 -0.054,0.142c-0.03,0.039 -0.062,0.065 -0.097,0.081c-0.036,0.019 -0.077,0.028 -0.122,0.027l-0.013,-0c-0.045,-0.002 -0.087,-0.014 -0.125,-0.038c-0.039,-0.023 -0.071,-0.055 -0.096,-0.096c-0.025,-0.042 -0.037,-0.088 -0.037,-0.138c0,-0.046 0.011,-0.09 0.035,-0.13c0.025,-0.043 0.056,-0.077 0.094,-0.104c0.041,-0.026 0.086,-0.039 0.135,-0.039Z"/><path d="M83.539,80.828c0.008,-0.294 0.117,-0.594 0.325,-0.9c0.197,-0.281 0.488,-0.516 0.873,-0.702c0.25,-0.121 0.379,-0.341 0.387,-0.66c0.004,-0.181 -0.079,-0.314 -0.248,-0.4c-0.164,-0.083 -0.335,-0.096 -0.511,-0.039c-0.105,0.035 -0.239,0.147 -0.402,0.336c-0.12,0.138 -0.235,0.159 -0.346,0.066c-0.102,-0.082 -0.112,-0.172 -0.03,-0.271c0.167,-0.206 0.311,-0.343 0.43,-0.413c0.155,-0.092 0.351,-0.138 0.588,-0.138c0.223,0 0.401,0.041 0.534,0.122c0.284,0.178 0.422,0.436 0.415,0.774c-0.01,0.455 -0.197,0.765 -0.562,0.931c-0.332,0.152 -0.586,0.355 -0.76,0.61c-0.167,0.242 -0.255,0.434 -0.265,0.575c0.462,0.002 0.924,0.003 1.386,0.005c0.156,-0 0.233,0.067 0.232,0.201c-0.002,0.14 -0.078,0.209 -0.23,0.207l-1.602,0c-0.15,0 -0.222,-0.101 -0.214,-0.304Z"/><path d="M87.318,77.709c0.783,0 1.174,0.552 1.174,1.655c0,1.18 -0.411,1.77 -1.233,1.77c-0.809,0 -1.213,-0.579 -1.213,-1.738c-0,-1.124 0.424,-1.687 1.272,-1.687Zm0.006,0.413c-0.564,-0 -0.845,0.422 -0.845,1.268c-0,0.892 0.26,1.338 0.78,1.338c0.525,-0 0.787,-0.457 0.787,-1.371c-0,-0.824 -0.241,-1.235 -0.722,-1.235Z"/><path d="M89.96,77.951l-0.014,2.779l0.239,-0c0.15,-0 0.225,0.067 0.225,0.203c-0,0.131 -0.073,0.197 -0.219,0.197l-0.992,-0c-0.131,-0 -0.197,-0.061 -0.197,-0.184c0.001,-0.146 0.074,-0.219 0.219,-0.219l0.325,0l0.005,-2.319l-0.162,0.153c-0.139,0.133 -0.255,0.135 -0.35,0.007c-0.076,-0.102 -0.062,-0.202 0.042,-0.3l0.435,-0.409c0.118,-0.111 0.226,-0.154 0.325,-0.131c0.081,0.017 0.12,0.092 0.118,0.223Z"/><path d="M91.288,77.746l1.543,-0.008c0.156,-0.002 0.235,0.065 0.236,0.201c0.002,0.145 -0.073,0.218 -0.223,0.218l-1.333,0l-0.088,0.846c0.231,-0.179 0.467,-0.269 0.709,-0.269c0.715,0.002 1.067,0.36 1.055,1.076c-0.016,0.941 -0.493,1.39 -1.431,1.346c-0.347,-0.016 -0.602,-0.157 -0.765,-0.423c-0.076,-0.125 -0.078,-0.218 -0.005,-0.28c0.131,-0.114 0.241,-0.113 0.33,0.002c0.149,0.195 0.323,0.293 0.523,0.293c0.567,0.001 0.874,-0.309 0.922,-0.932c0.035,-0.44 -0.175,-0.658 -0.629,-0.655c-0.226,0.001 -0.41,0.077 -0.551,0.229c-0.188,0.182 -0.339,0.272 -0.453,0.269c-0.121,-0.005 -0.173,-0.099 -0.157,-0.282l0.133,-1.504c0.021,-0.085 0.082,-0.127 0.184,-0.127Z"/><path d="M146.527,38.927c-0.886,-0.041 -1.574,-0.099 -2.67,-0.158c-0.464,-0.025 -0.819,-0.421 -0.794,-0.884c0.025,-0.464 0.421,-0.82 0.884,-0.795c1.12,0.061 1.809,0.118 2.657,0.157c0.463,0.021 0.822,0.414 0.801,0.878c-0.021,0.451 -0.393,0.802 -0.839,0.802c-0.013,0 -0.026,-0 -0.039,-0.001Z"/><path d="M66.014,58.654l-0.048,-0.034l-0.042,-0.041c-0.976,-0.969 -1.605,-2.426 -2.031,-4.124c-0.421,-1.699 -0.621,-3.649 -0.621,-5.605c0,-2.012 0.211,-4.029 0.631,-5.781c0.424,-1.753 1.034,-3.247 1.954,-4.236l0.021,-0.022l0.025,-0.022c0.304,-0.266 0.663,-0.425 1.037,-0.528c0.374,-0.102 0.768,-0.145 1.164,-0.146c0.781,0.005 1.559,0.161 2.185,0.508l0.013,0.008l0.013,0.008c0.56,0.352 1.051,0.84 1.455,1.362c0.403,0.524 0.717,1.075 0.89,1.606c0.115,0.357 -0.081,0.74 -0.438,0.855c-0.357,0.115 -0.74,-0.081 -0.855,-0.438c-0.101,-0.319 -0.348,-0.775 -0.672,-1.192c-0.32,-0.416 -0.717,-0.8 -1.09,-1.034c-0.327,-0.185 -0.934,-0.328 -1.501,-0.323c-0.293,-0.001 -0.576,0.034 -0.807,0.097c-0.215,0.058 -0.38,0.142 -0.475,0.22c-0.639,0.685 -1.219,1.99 -1.597,3.593c-0.39,1.624 -0.595,3.549 -0.594,5.465c-0.001,1.862 0.193,3.717 0.581,5.277c0.375,1.528 0.953,2.763 1.621,3.44c0.275,0.174 0.71,0.29 1.211,0.288c0.511,0.001 1.081,-0.116 1.59,-0.341c0.507,-0.223 0.95,-0.55 1.251,-0.948c0.166,-0.249 0.256,-0.426 0.32,-0.622c0.065,-0.201 0.106,-0.441 0.13,-0.808c0.025,-0.374 0.349,-0.657 0.723,-0.632c0.375,0.024 0.658,0.348 0.634,0.723c-0.029,0.423 -0.081,0.786 -0.194,1.135c-0.112,0.349 -0.282,0.664 -0.499,0.982l-0.009,0.014l-0.01,0.013c-0.471,0.627 -1.11,1.083 -1.797,1.386c-0.688,0.303 -1.428,0.457 -2.139,0.457c-0.733,-0.002 -1.446,-0.16 -2.03,-0.56Z"/><path d="M82.189,57.106c-0.411,-0.025 -0.725,-0.378 -0.7,-0.789c0.034,-0.566 0.059,-1.134 0.059,-1.693c-0,-1.029 -0.085,-2.026 -0.331,-2.91c-0.246,-0.887 -0.643,-1.656 -1.28,-2.295c-0.291,-0.292 -0.291,-0.764 0.001,-1.055c0.291,-0.291 0.764,-0.29 1.055,0.001c0.849,0.85 1.366,1.878 1.662,2.951c0.297,1.075 0.384,2.2 0.384,3.308c0,0.602 -0.026,1.2 -0.061,1.783c-0.024,0.395 -0.352,0.7 -0.744,0.7c-0.015,0 -0.03,0 -0.045,-0.001Z"/><path d="M75.118,57.197c-0.461,-0.023 -0.817,-0.415 -0.795,-0.876c0.018,-0.368 0.024,-0.741 0.024,-1.118c0.001,-1.071 -0.055,-2.176 -0.055,-3.304c0,-1.036 0.047,-2.093 0.24,-3.156c0.083,-0.455 0.518,-0.756 0.973,-0.674c0.454,0.083 0.756,0.518 0.673,0.973c-0.167,0.917 -0.213,1.872 -0.213,2.857c-0.001,1.071 0.055,2.177 0.055,3.304c0,0.397 -0.007,0.797 -0.026,1.198l-0,0.001c-0.022,0.447 -0.391,0.796 -0.835,0.796c-0.014,-0 -0.027,-0 -0.041,-0.001l0,-0Z"/><path d="M74.583,48.965c-0.162,-1.716 -0.246,-3.477 -0.246,-5.235c-0,-1.654 0.074,-3.304 0.229,-4.91l0.047,-0.487l0.46,-0.167c0.823,-0.299 1.614,-0.442 2.358,-0.442c1.774,-0.006 3.25,0.831 4.21,2.056c0.966,1.225 1.468,2.819 1.47,4.451c0,1.841 -0.651,3.758 -2.097,5.209c-0.303,0.302 -0.793,0.303 -1.097,0.001c-0.302,-0.303 -0.303,-0.793 -0.001,-1.096c1.122,-1.123 1.644,-2.63 1.645,-4.114c0.001,-1.311 -0.416,-2.584 -1.136,-3.489c-0.726,-0.906 -1.703,-1.462 -2.994,-1.468c-0.419,-0 -0.874,0.061 -1.368,0.2c-0.119,1.394 -0.176,2.823 -0.176,4.256c0,1.708 0.082,3.422 0.239,5.09c0.04,0.425 -0.273,0.804 -0.699,0.844c-0.025,0.002 -0.049,0.003 -0.074,0.003c-0.395,0 -0.733,-0.301 -0.77,-0.702l-0,-0Z"/><path d="M87.086,58.789c-0.714,-0.35 -1.358,-0.952 -1.622,-1.812c-0.002,-0.007 -0.005,-0.015 -0.007,-0.024c-0,-0.001 -0.001,-0.003 -0.001,-0.004c-0,-0 -0.001,-0.001 -0.001,-0.001c-0.008,-0.03 -0.014,-0.06 -0.018,-0.09c-0.445,-2.708 -0.998,-6.361 -0.999,-9.767c0,-1.701 0.136,-3.342 0.51,-4.794c0.375,-1.447 0.991,-2.727 2.01,-3.628l0.053,-0.047l0.061,-0.036c0.68,-0.399 1.428,-0.62 2.18,-0.62c0.779,-0.001 1.56,0.243 2.232,0.732l0.018,0.013l0.019,0.016c0.521,0.435 0.898,1.031 1.203,1.723c0.304,0.695 0.532,1.496 0.709,2.372c0.352,1.751 0.493,3.804 0.494,5.839c0,1.85 -0.118,3.681 -0.315,5.24c-0.201,1.565 -0.46,2.833 -0.814,3.666c-0.104,0.238 -0.212,0.446 -0.377,0.641c-0.353,0.413 -0.823,0.66 -1.338,0.832c-0.517,0.167 -1.091,0.251 -1.679,0.251c-0.785,-0.001 -1.597,-0.147 -2.318,-0.502l-0,-0Zm0.654,-1.32c0.456,0.229 1.069,0.351 1.664,0.35c0.445,0 0.88,-0.067 1.222,-0.179c0.344,-0.109 0.583,-0.272 0.667,-0.38l0.006,-0.006l0.002,-0.003c0.012,-0.01 0.078,-0.109 0.145,-0.266c0.067,-0.158 0.142,-0.374 0.215,-0.634c0.147,-0.52 0.287,-1.214 0.405,-2.014c0.237,-1.601 0.388,-3.634 0.388,-5.676c0,-1.474 -0.078,-2.953 -0.255,-4.28c-0.176,-1.326 -0.455,-2.501 -0.824,-3.34c-0.238,-0.548 -0.514,-0.943 -0.774,-1.164c-0.425,-0.301 -0.874,-0.436 -1.349,-0.438c-0.444,0 -0.913,0.125 -1.375,0.383c-0.681,0.623 -1.183,1.6 -1.503,2.844c-0.329,1.273 -0.464,2.805 -0.464,4.425c-0.001,3.234 0.532,6.807 0.973,9.489c0.131,0.38 0.411,0.663 0.857,0.889l0,0Z"/><path d="M100.736,58.212c-0.882,-0.54 -1.618,-1.397 -1.813,-2.531c-0.059,-0.336 0.167,-0.657 0.503,-0.715c0.337,-0.058 0.656,0.168 0.715,0.504c0.124,0.715 0.579,1.276 1.244,1.691c0.661,0.41 1.517,0.634 2.281,0.632c0.816,0.005 1.479,-0.261 1.749,-0.617l0.026,-0.033l0.03,-0.029c0.362,-0.349 0.558,-0.627 0.895,-1.263c0.237,-0.489 0.404,-0.898 0.402,-1.32c0,-0.199 -0.034,-0.412 -0.128,-0.664c-0.63,-0.858 -1.896,-2.163 -3.225,-3.614c-1.364,-1.494 -2.805,-3.155 -3.767,-4.789c-0.638,-1.092 -1.082,-2.178 -1.086,-3.257c-0.01,-0.928 0.38,-1.847 1.196,-2.513c0.813,-0.672 1.993,-1.136 3.637,-1.424c0.159,-0.028 0.331,-0.044 0.511,-0.044c0.507,-0.002 1.095,0.134 1.67,0.5l0.06,0.037l0.049,0.051c0.832,0.851 1.718,1.913 1.928,3.306c0.049,0.338 -0.185,0.652 -0.523,0.701c-0.338,0.049 -0.651,-0.185 -0.701,-0.523c-0.127,-0.92 -0.773,-1.789 -1.531,-2.563c-0.353,-0.208 -0.67,-0.272 -0.952,-0.273c-0.106,0 -0.206,0.01 -0.299,0.026c-1.521,0.262 -2.502,0.688 -3.058,1.156c-0.553,0.473 -0.741,0.943 -0.751,1.563c-0.002,0.538 0.182,1.191 0.525,1.902c0.342,0.712 0.837,1.477 1.416,2.25c1.158,1.548 2.646,3.125 3.899,4.478c0.838,0.904 1.568,1.703 2.051,2.37l0.043,0.06l0.028,0.068c0.169,0.416 0.245,0.819 0.244,1.196c-0.002,0.756 -0.288,1.36 -0.53,1.866l-0.009,0.02c-0.349,0.67 -0.659,1.131 -1.117,1.569c-0.646,0.759 -1.656,1.038 -2.682,1.043c-0.993,-0.002 -2.043,-0.272 -2.93,-0.817Z"/><path d="M110.805,58.247l-0.052,-0.033l-0.044,-0.041c-0.552,-0.522 -0.91,-0.964 -1.146,-1.436c-0.236,-0.472 -0.33,-0.931 -0.424,-1.443c-0.061,-0.339 0.163,-0.664 0.502,-0.726c0.339,-0.061 0.663,0.164 0.725,0.503c0.09,0.5 0.164,0.813 0.312,1.108c0.144,0.286 0.376,0.597 0.843,1.045c0.668,0.41 1.29,0.572 1.864,0.574c0.986,0 1.884,-0.494 2.56,-1.292c0.674,-0.796 1.09,-1.884 1.088,-2.95c-0.004,-1.008 -0.351,-1.986 -1.192,-2.79c-0.724,-0.479 -1.607,-0.828 -2.508,-1.218c-0.916,-0.4 -1.858,-0.844 -2.631,-1.594l-0.022,-0.021l-0.019,-0.023c-1.053,-1.242 -1.503,-2.754 -1.501,-4.254c0,-1.042 0.212,-2.084 0.585,-3.06l0.014,-0.039l0.02,-0.036c0.252,-0.465 0.515,-0.833 0.835,-1.133c0.317,-0.297 0.673,-0.511 1.074,-0.705c0.612,-0.311 1.303,-0.449 1.996,-0.45c0.993,0.002 2.002,0.283 2.808,0.858c0.804,0.567 1.401,1.491 1.395,2.628c0,0.193 -0.017,0.39 -0.05,0.592c-0.056,0.34 -0.377,0.57 -0.717,0.513c-0.34,-0.056 -0.57,-0.377 -0.513,-0.717c0.023,-0.137 0.033,-0.266 0.033,-0.388c-0.006,-0.703 -0.326,-1.21 -0.875,-1.615c-0.548,-0.396 -1.329,-0.626 -2.081,-0.624c-0.525,-0.001 -1.03,0.109 -1.431,0.315l-0.012,0.006c-0.347,0.167 -0.576,0.313 -0.774,0.497c-0.191,0.18 -0.368,0.411 -0.572,0.782c-0.314,0.836 -0.489,1.718 -0.488,2.576c0.002,1.25 0.361,2.436 1.188,3.427c0.571,0.55 1.357,0.941 2.235,1.321c0.887,0.387 1.86,0.76 2.748,1.355l0.041,0.028l0.036,0.033c1.132,1.048 1.629,2.416 1.625,3.736c-0.002,1.385 -0.52,2.73 -1.382,3.754c-0.858,1.021 -2.096,1.735 -3.513,1.735l-0.005,-0c-0.837,-0 -1.718,-0.255 -2.575,-0.798l0,0Z"/><path d="M127.641,57.165c-0.045,-1.669 -0.686,-3.265 -1.144,-4.999c-0.083,-0.315 0.106,-0.638 0.421,-0.719c0.315,-0.083 0.638,0.106 0.72,0.421c0.421,1.632 1.12,3.317 1.182,5.262c0.009,0.326 -0.247,0.598 -0.572,0.607c-0.006,0 -0.012,0.001 -0.018,0.001c-0.317,-0 -0.58,-0.253 -0.589,-0.573Z"/><path d="M119.741,57.312c-0.308,-0.129 -0.453,-0.483 -0.324,-0.791c0.613,-1.455 0.802,-3.027 1.334,-4.795c0.097,-0.319 0.435,-0.5 0.754,-0.402c0.319,0.096 0.5,0.434 0.403,0.753c-0.501,1.636 -0.686,3.25 -1.376,4.911c-0.097,0.231 -0.321,0.371 -0.557,0.371c-0.078,-0 -0.157,-0.016 -0.234,-0.047Z"/><path d="M126.254,51.983c-0.334,-2.939 -0.846,-6.111 -1.991,-8.774c-0.59,0.986 -1.013,2.185 -1.324,3.462c-0.414,1.692 -0.639,3.509 -0.869,5.134c-0.052,0.366 -0.391,0.621 -0.758,0.569c-0.366,-0.052 -0.621,-0.391 -0.569,-0.757c0.229,-1.608 0.455,-3.469 0.894,-5.264c0.441,-1.794 1.091,-3.536 2.229,-4.893l0.645,-0.766l0.462,0.887c1.625,3.124 2.223,6.881 2.613,10.249c0.042,0.367 -0.222,0.7 -0.589,0.742c-0.026,0.003 -0.052,0.004 -0.078,0.004c-0.335,0 -0.625,-0.252 -0.665,-0.593Z"/><path d="M137.784,55.86c-0.296,-0.208 -0.559,-0.516 -0.712,-0.916l-0.012,-0.03l-0.008,-0.029c-1.088,-3.772 -2.896,-7.347 -4.445,-11.132l-0.01,-0.027c-0.013,-0.036 -0.026,-0.068 -0.04,-0.097c-0.269,0.168 -0.626,0.151 -0.88,-0.066c-0.314,-0.268 -0.351,-0.739 -0.083,-1.053c0.227,-0.274 0.589,-0.5 1.001,-0.497c0.386,0 0.708,0.189 0.924,0.409c0.216,0.219 0.364,0.481 0.474,0.773c1.509,3.698 3.34,7.304 4.483,11.239c0.02,0.044 0.045,0.084 0.075,0.119c0.313,-1.56 0.402,-3.191 0.402,-4.865c0,-2.001 -0.128,-4.059 -0.128,-6.12c0,-0.731 0.016,-1.461 0.061,-2.191c0.025,-0.411 0.379,-0.725 0.791,-0.699c0.412,0.025 0.725,0.379 0.7,0.791c-0.043,0.69 -0.059,1.39 -0.059,2.099c0,1.999 0.128,4.057 0.128,6.12c0,1.917 -0.11,3.841 -0.554,5.726l-0.019,0.078l-0.034,0.072c-0.102,0.219 -0.287,0.399 -0.482,0.497c-0.196,0.101 -0.394,0.134 -0.576,0.135c-0.369,-0.003 -0.698,-0.129 -0.997,-0.336Z"/><path d="M131.723,57.205c-0.466,-0.025 -0.823,-0.422 -0.799,-0.888c0.036,-0.669 0.049,-1.344 0.049,-2.026c0,-1.929 -0.107,-3.905 -0.108,-5.896c0.001,-1.85 0.093,-3.715 0.468,-5.567c0.093,-0.458 0.539,-0.753 0.996,-0.661c0.457,0.093 0.753,0.539 0.66,0.996c-0.342,1.687 -0.434,3.439 -0.434,5.232c-0.001,1.93 0.107,3.905 0.107,5.896c0,0.703 -0.013,1.409 -0.051,2.115l0.001,0c-0.024,0.451 -0.397,0.8 -0.843,0.8c-0.015,0 -0.03,-0 -0.046,-0.001Z"/><path d="M145.874,56.362l0,-17.494c0,-0.461 0.373,-0.834 0.834,-0.834c0.46,0 0.834,0.373 0.834,0.834l0,17.494c0,0.461 -0.374,0.834 -0.834,0.834c-0.461,-0 -0.834,-0.373 -0.834,-0.834Z"/><path d="M153.832,58.138c-0.73,-0.543 -1.264,-1.4 -1.409,-2.49l-0.004,-0.038c-0.006,-0.084 -0.007,-0.155 -0.007,-0.214c-0,-0.086 0.003,-0.141 0.002,-0.191l-0,-0.02c-0.002,-0.321 0.258,-0.584 0.58,-0.586c0.322,-0.003 0.585,0.257 0.587,0.579l-0,0.027c-0,0.085 -0.003,0.14 -0.003,0.191c-0,0.033 0.001,0.066 0.004,0.112c0.117,0.802 0.466,1.329 0.95,1.697c0.488,0.368 1.139,0.56 1.83,0.559c0.746,0.001 1.527,-0.226 2.149,-0.646c0.624,-0.422 1.088,-1.018 1.276,-1.798c0.103,-0.415 0.154,-0.858 0.154,-1.298c0.005,-1.086 -0.322,-2.149 -0.792,-2.722c-0.662,-0.788 -1.581,-1.316 -2.584,-1.835c-1.002,-0.522 -2.083,-1.026 -2.984,-1.858c-0.6,-0.554 -1.109,-1.264 -1.414,-2.18c-0.176,-0.517 -0.256,-1.046 -0.256,-1.566c0.002,-1.443 0.605,-2.813 1.518,-3.841c0.914,-1.025 2.162,-1.732 3.516,-1.736c1.028,-0.005 2.086,0.435 2.961,1.372l0.023,0.024l0.02,0.027c0.165,0.223 0.293,0.408 0.395,0.596c0.103,0.187 0.177,0.378 0.225,0.57l-0,0.002l0.001,0.004c0.082,0.332 0.087,0.62 0.087,0.868l-0,0.067c0.001,0.322 -0.26,0.584 -0.582,0.585c-0.322,0 -0.583,-0.26 -0.584,-0.582l-0,-0.07c-0,-0.234 -0.006,-0.395 -0.053,-0.59c-0.028,-0.107 -0.058,-0.184 -0.118,-0.295c-0.058,-0.107 -0.148,-0.244 -0.286,-0.43c-0.69,-0.716 -1.39,-0.977 -2.089,-0.982c-0.926,-0.004 -1.904,0.51 -2.645,1.345c-0.742,0.831 -1.226,1.958 -1.223,3.066c-0,0.401 0.061,0.801 0.194,1.193c0.245,0.726 0.621,1.249 1.102,1.698c0.481,0.446 1.074,0.809 1.724,1.156c1.292,0.7 2.825,1.317 3.953,2.652l0.008,0.009c0.701,0.883 1.043,2.151 1.048,3.453c-0,0.528 -0.059,1.062 -0.186,1.575c-0.259,1.085 -0.928,1.932 -1.758,2.488c-0.832,0.559 -1.824,0.844 -2.8,0.845c-0.902,-0 -1.801,-0.246 -2.53,-0.792l0,0Z"/><path d="M95.553,56.361l-0,-14.938c-0,-0.461 0.374,-0.835 0.835,-0.835c0.461,-0 0.835,0.374 0.835,0.835l0,14.938c0,0.462 -0.374,0.836 -0.835,0.836c-0.461,-0 -0.835,-0.374 -0.835,-0.836Z"/><path d="M96.22,36.624c1.628,-0 1.628,-2.526 -0,-2.526c-1.629,0 -1.629,2.526 -0,2.526Z"/><path d="M145.822,38.113c-0.015,-0.464 0.349,-0.852 0.813,-0.867c0.686,-0.021 1.712,-0.128 2.748,-0.157c0.464,-0.013 0.85,0.353 0.863,0.818c0.012,0.464 -0.354,0.85 -0.818,0.863c-0.953,0.025 -1.951,0.13 -2.739,0.156c-0.009,0.001 -0.018,0.001 -0.027,0.001c-0.453,-0 -0.826,-0.359 -0.84,-0.814Z"/><path d="M75.355,49.722c-0.458,-0 -0.83,-0.372 -0.83,-0.83c0,-0.459 0.372,-0.83 0.83,-0.83l5.111,0c0.458,0 0.83,0.371 0.83,0.83c-0,0.458 -0.372,0.83 -0.83,0.83l-5.111,-0Z"/><path d="M121.87,52.738c-0.459,-0.051 -0.791,-0.465 -0.74,-0.924c0.051,-0.46 0.465,-0.792 0.925,-0.74c0.884,0.097 1.639,0.153 2.39,0.153c0.685,-0 1.37,-0.046 2.159,-0.151c0.458,-0.062 0.88,0.26 0.941,0.719c0.061,0.458 -0.261,0.88 -0.719,0.941c-0.853,0.114 -1.621,0.166 -2.381,0.166c-0.835,-0 -1.656,-0.062 -2.575,-0.164Z"/></g></svg>