<svg fill="none" height="84" viewBox="0 0 167 84" width="167" xmlns="http://www.w3.org/2000/svg"><g clip-rule="evenodd" fill="#000" fill-rule="evenodd"><path d="m46.5131 35.4494c-3.7969-4.52 2.5731-9.5919 4.0072-12.9705.7038-1.6583.7136-3.4693 1.3708-4.8724 2.3623-5.044 5.8848-6.0102 10.7805-8.40477 3.2865-1.60753 6.0661-4.01902 10.1919-4.72257.941-.06162 2.0023-2.1214 3.3502-2.67928 2.1634-.8953 9.0443-1.430882 12.4444-1.272138.114.005353.2393.001652.3515.022503 2.5709.469165 6.3976.828025 9.4465 1.429655 2.0779.41018 4.7019 1.3373 7.6339 2.1408 2.744.75185 5.349 1.94257 6.527 2.89648 1.452 1.17565 1.686 3.05082 3.554 5.18672 1.679 1.9181 5.974 3.6133 5.508 7.7915-.42 3.7714-4.047 3.549-8.081 4.8572-2.046.6636-3.579 1.933-4.731 2.1779-1.453.3088-2.843-.2627-4.6.1197-1.655.3602-3.261 1.7348-5.0828 2.1553-4.4377 1.0243-10.2998.518-15.6369 1.4816-5.2539.9486-10.4941 2.9956-14.335 3.2182-1.2833.0745-2.6958-.3934-3.8697-.2469-3.216.4008-6.4365 3.0767-9.9819 1.4293-2.142 1.1646-6.7381 2.2637-8.8476.2617zm28.435-30.42369c1.0331 5.33749-.3995 18.02959 4.0421 19.68399 2.9571 1.1017 6.0664-1.902 6.6477-4.5355.8798-3.9888.9102-9.4625 2.5998-13.06017.8458-1.80113 2.1329-2.15239 2.7517-4.37091-5.8633.07276-12.3222-.64915-16.0413 2.28259zm14.644 3.0015c-2.0853 4.55199-1.0923 10.43189-3.0566 14.68429-1.3382 2.8966-4.9173 4.8848-8.3542 3.5997-5.1289-1.9171-3.5662-13.1737-4.7194-20.14037-4.8041 1.6036-10.684 3.14322-12.5656 8.70407-1.8486 5.4635-.3675 14.1545 3.1967 16.3236 3.6742 2.2356 9.0817.1094 12.7698-.8381 2.9267-.7515 6.0059-1.3988 9.6564-1.8632 7.4037-.9422 16.2078.051 18.3358-5.0292 1.926-4.5949 1.145-13.60816-1.059-16.60047-2.292-3.11101-6.2438-3.03243-10.3703-3.55559-1.497 1.40541-2.918 2.71706-3.8336 4.71527zm16.6969 15.11909c-.576 1.3023-.712 1.8112-.131 2.0578 5.842.1701 8.931-3.5403 9.047-8.9287.143-6.61515-5.437-9.88325-10.301-10.16379 2.563 3.27034 3.308 11.59939 1.385 17.03469zm8.847-.262c2.029-.7929 4.211-.5312 4.758-2.5897.636-2.3942-1.59-4.2487-3.177-5.5759.002 3.4271-.618 6.0248-1.581 8.1656zm-60.0221 10.6344c3.2673.6344 5.4097-.2311 7.8188-.7409-.7704-1.5667-2.062-2.6736-2.8773-4.7301-1.326-3.3448-1.7203-8.0536-.9968-12.0501.2371-1.3102 2.0309-3.3451.9664-4.0715-6.9403 1.6395-11.6125 15.6611-4.9111 21.5926zm-7.7922.3292c.9071 1.7083 4.4295 1.0726 5.6553-.0523-2.1334-1.5219-1.8238-5.5588-3.0189-8.0458-1.0701 2.4438-3.6489 4.7365-2.6364 8.0981z"/><path d="m109.949 31.2484c-.46-.0229-.814-.4147-.792-.8748.023-.4602.415-.8149.875-.792 7.261.3608 14.573.4566 21.909.4566 8.205 0 16.439-.1199 24.66-.1199 2.901 0 5.801.0151 8.698.0554.461.0065.829.3854.823.8461-.007.4609-.385.8291-.846.8226-2.887-.0404-5.779-.0552-8.675-.0552-8.205 0-16.439.1194-24.66.1194-7.35 0-14.69-.0956-21.992-.4582z"/><path d="m8.033 31.589c-2.09295 0-4.18306.0151-6.26841.0561-.46242.009-.844112-.3582-.853298-.8206-.008922-.4621.358368-.8442.820618-.8533 2.09913-.0409 4.19991-.0561 6.30109-.0561 5.9557 0 11.9146.1214 17.8479.1214 5.2768 0 10.5327-.0959 15.7474-.4563.4615-.032.861.3159.8929.777.0317.4614-.3162.861-.7773.893-5.2716.3643-10.5661.46-15.863.4604-5.9559-.0003-11.915-.1216-17.8479-.1216z"/><path d="m1.85347 66.2372c-.46067 0-.83394-.3737-.83394-.8342 0-.4608.37327-.8342.83394-.8342h163.53953c.461 0 .834.3734.834.8342 0 .4605-.373.8342-.834.8342-54.513 0-109.0264 0-163.53953 0z"/><path d="m30.1012 68.7476v3.527h-.6342v-3.0172h-1.2095v.8965c0 .991-.0947 1.647-.5538 1.9455-.1749.1458-.3717.2262-.6998.2262l-.0654-.5101c.1241-.0146.2623-.0727.3497-.1456.3279-.2333.3644-.729.3644-1.516v-1.4063z"/><path d="m34.8607 68.7476v1.1949c.153-.0287.3935-.0365.5828-.0365.7943 0 1.6325.2479 1.6325 1.1879 0 .3646-.1459.6196-.3717.8089-.3863.3283-1.013.4083-1.5303.4083-.3572 0-.6851-.022-.9474-.0513v-3.5122zm0 3.0827c.1237.0142.2623.0287.4737.0287.4809 0 1.1002-.1601 1.1002-.7506 0-.6121-.6414-.7432-1.115-.7432-.1675 0-.3132.0145-.4589.0365z"/><path d="m40.9453 68.7912c.2478-.0436.707-.08 1.1224-.08.5902 0 1.5666.0945 1.5666.8816 0 .4372-.3351.707-.736.7945v.0145c.5175.0729.8964.364.8964.8745 0 .9254-1.1659 1.0419-1.8581 1.0419-.3937 0-.8019-.029-.9913-.0435zm.605 3.0608c.1822.0219.3132.029.5174.029.4301 0 1.0713-.102 1.0713-.6118 0-.5102-.5102-.6196-1.1224-.6196h-.4663zm.0071-1.6252h.4812c.4735 0 .9618-.1384.9618-.554 0-.3498-.3061-.5173-.9473-.5173-.2114 0-.3425.0148-.4957.0294z"/><path d="m48.4066 67.7568c.0073.2185-.153.3933-.4082.3933-.2258 0-.3861-.1748-.3861-.3933 0-.2263.1675-.4008.4008-.4008.2405 0 .3935.1745.3935.4008zm-.7141 4.518v-3.527h.6413v3.527z"/><path d="m52.4736 68.7912c.2479-.0436.7069-.08 1.1224-.08.5902 0 1.5665.0945 1.5665.8816 0 .4372-.335.707-.7359.7945v.0145c.5175.0729.8964.364.8964.8745 0 .9254-1.1659 1.0419-1.8582 1.0419-.3937 0-.8016-.029-.9912-.0435zm.6049 3.0608c.1823.0219.3134.029.5175.029.4299 0 1.0712-.102 1.0712-.6118 0-.5102-.5101-.6196-1.1224-.6196h-.4663zm.0072-1.6252h.481c.4738 0 .962-.1384.962-.554 0-.3498-.3063-.5173-.9474-.5173-.2112 0-.3424.0148-.4956.0294z"/><path d="m61.7359 72.1437c-.1675.0875-.5391.2111-1.0129.2111-1.0639 0-1.7562-.7287-1.7562-1.8075 0-1.0855.7435-1.8725 1.8948-1.8725.3788 0 .7142.0948.889.182l-.1456.4956c-.1532-.0874-.3936-.1675-.7434-.1675-.809 0-1.2462.5973-1.2462 1.3338 0 .816.5247 1.3188 1.2241 1.3188.3645 0 .6049-.0946.7872-.1752z"/><path d="m66.1956 68.7476v1.1949c.153-.0287.3934-.0365.583-.0365.7942 0 1.6322.2479 1.6322 1.1879 0 .3646-.1457.6196-.3716.8089-.3862.3283-1.0129.4083-1.5302.4083-.3573 0-.6851-.022-.9475-.0513v-3.5122zm0 3.0827c.124.0142.2622.0287.4736.0287.481 0 1.1004-.1601 1.1004-.7506 0-.6121-.6412-.7432-1.1151-.7432-.1674 0-.3133.0145-.4589.0365z"/><path d="m72.9289 68.7476v1.5298h.1531l1.3262-1.5298h.7798l-1.5376 1.5957c.5683.0584.9108.4372 1.1877 1.0714.0949.2333.2187.5753.3791.8599h-.6705c-.0947-.1529-.2186-.4301-.328-.7219-.2404-.5682-.5683-.8305-1.1659-.8305h-.1239v1.5524h-.634v-3.527z"/><path d="m79.5901 67.7568c.0074.2185-.1529.3933-.4081.3933-.2258 0-.3861-.1748-.3861-.3933 0-.2263.1677-.4008.4008-.4008.2405 0 .3934.1745.3934.4008zm-.7141 4.518v-3.527h.6413v3.527z"/><path d="m88.9396 68.7476v1.5298h.1529l1.3263-1.5298h.7797l-1.5376 1.5957c.5683.0584.9111.4372 1.1879 1.0714.0947.2333.2187.5753.3788.8599h-.6703c-.0947-.1529-.2187-.4301-.3281-.7219-.2403-.5682-.5683-.8305-1.1659-.8305h-.1237v1.5524h-.6339v-3.527z"/><path d="m94.8865 69.8988c0-.4517-.0145-.816-.0291-1.1513h.5756l.0292.6047h.0146c.2622-.4301.6777-.6847 1.2534-.6847.8526 0 1.4938.7215 1.4938 1.7925 0 1.2682-.7724 1.8945-1.6032 1.8945-.4663 0-.8745-.2039-1.0857-.5536h-.0145v1.9164h-.6341zm.6341.9401c0 .0949.0145.1823.029.2623.1166.4444.5028.7506.9618.7506.6779 0 1.0714-.5537 1.0714-1.3628 0-.707-.3716-1.3117-1.0493-1.3117-.4372 0-.8454.3137-.9693.7945-.0218.08-.0436.1749-.0436.262z"/><path d="m102.356 68.7476.772 2.0843c.08.2329.168.5098.226.7208h.015c.065-.211.138-.4808.226-.7356l.699-2.0695h.678l-.962 2.5141c-.459 1.2094-.772 1.829-1.21 2.2076-.313.2771-.626.3866-.787.4156l-.16-.5393c.16-.0509.372-.1529.561-.3136.175-.1381.393-.3856.539-.7138.029-.0655.051-.1165.051-.1526 0-.0368-.014-.0881-.043-.1678l-1.305-3.2502z"/><path d="m111.123 71.4291c0 .3062.015.6047.058.8454h-.583l-.051-.4443h-.022c-.197.2766-.576.5243-1.078.5243-.714 0-1.079-.5027-1.079-1.0129 0-.8526.758-1.3188 2.121-1.3117v-.0726c0-.2918-.08-.8164-.802-.8164-.328 0-.67.1019-.918.2623l-.146-.4224c.292-.1898.715-.3133 1.159-.3133 1.079 0 1.341.7357 1.341 1.4424zm-.619-.9546c-.7-.0145-1.494.1094-1.494.7945 0 .4153.276.6119.604.6119.459 0 .751-.2917.853-.59.022-.0657.037-.139.037-.2042z"/><path d="m117.761 72.1437c-.167.0875-.539.2111-1.012.2111-1.065 0-1.757-.7287-1.757-1.8075 0-1.0855.744-1.8725 1.895-1.8725.379 0 .714.0948.889.182l-.146.4956c-.153-.0874-.393-.1675-.743-.1675-.809 0-1.246.5973-1.246 1.3338 0 .816.524 1.3188 1.224 1.3188.364 0 .605-.0946.787-.1752z"/><path d="m125.626 71.4291c0 .3062.014.6047.058.8454h-.583l-.051-.4443h-.022c-.197.2766-.576.5243-1.078.5243-.715 0-1.079-.5027-1.079-1.0129 0-.8526.758-1.3188 2.121-1.3117v-.0726c0-.2918-.081-.8164-.802-.8164-.328 0-.67.1019-.918.2623l-.146-.4224c.292-.1898.714-.3133 1.159-.3133 1.078 0 1.341.7357 1.341 1.4424zm-.62-.9546c-.699-.0145-1.494.1094-1.494.7945 0 .4153.277.6119.605.6119.459 0 .751-.2917.853-.59.022-.0657.036-.139.036-.2042z"/><path d="m130.369 68.7476v1.4208h1.676v-1.4208h.634v3.527h-.634v-1.5964h-1.676v1.5964h-.634v-3.527z"/><path d="m137.407 68.7476v1.4863c0 .5615-.007.911-.036 1.4141h.022c.211-.4227.335-.6706.568-1.0788l1.101-1.8216h.75v3.527h-.612v-1.4941c0-.5757.015-.8745.044-1.4427h-.022c-.226.4517-.379.7357-.583 1.0933-.335.5463-.721 1.2236-1.1 1.8435h-.736v-3.527z"/><path d="m65.6161 80.6141c-.5116-.3281-.8469-.8057-.8495-1.3421-.0023-.5163.3302-.9931.8807-1.2952.554-.3079 1.3397-.4863 2.3981-.4873.4317 0 .909.0304 1.4349.0961.197.0252.3367.205.3118.4021-.025.1972-.2045.3363-.4019.312-.499-.0628-.9466-.0909-1.3448-.0909-.9758-.0013-1.6502.1722-2.0469.3959-.4003.2301-.5104.465-.5126.6673-.0023.2141.144.4941.5196.7375.3711.2394.9519.4198 1.7075.4194.4628 0 .9911-.067 1.5757-.2255.1919-.0523.3893.0606.4413.253.0522.1913-.0612.3888-.2528.4408-.6409.1742-1.2319.251-1.7642.251-.8685-.0003-1.5807-.203-2.0969-.5341z"/><path d="m97.9134 78.3847c-.1949-.0381-.3217-.2275-.2832-.4224.0445-.2243.0644-.4214.0644-.5941-.001-.3356-.0728-.5711-.1887-.7531-.1165-.1821-.2849-.3231-.5254-.4387-.4774-.2319-1.2339-.3191-2.1107-.3165-1.2025-.0007-2.6251.1471-3.9495.1481-1.6834 0-3.2828 0-4.8467 0-3.1278 0-6.1123 0-9.3382 0-1.2003-.001-2.6215-.1191-3.8866-.1191-.7139 0-1.3773.0384-1.9063.1492-.5322.1087-.9113.2939-1.0998.5211-.1265.1526-.1961.3243-.1986.5908-.0003.1814.0379.4063.1305.6768.064.1878-.0362.3921-.2244.4566-.1879.0639-.3928-.0366-.4565-.2246-.1116-.3272-.1689-.6283-.1689-.9088-.0026-.4094.131-.7783.3699-1.0558.2376-.2792.5593-.467.9218-.5993.7269-.2617 1.6455-.3234 2.6323-.3252 1.3064.0006 2.7317.119 3.8866.119h9.3382c1.5639 0 3.1633-.0003 4.847 0 1.2722 0 2.692-.1474 3.9492-.1481.6896.0007 1.3316.0439 1.8909.1939.5551.1498 1.0492.4202 1.3519.8932.2007.3135.302.6997.3012 1.1405 0 .2275-.026.4711-.0776.7335-.034.1714-.1843.2901-.3525.2901-.0231 0-.0465-.002-.0703-.0071z"/><path d="m90.9217 83.3088c-4.7793 0-9.5565 0-14.1851 0-1.1514-.0004-3.2473.1571-4.8712.1571-.8173-.0027-1.5029-.0329-1.9716-.172-.158-.051-.3017-.1081-.4332-.2394-.1706-.1833-.2275-.3928-.2684-.6048-.0379-.2143-.0473-.4414-.0478-.6676.0002-.3511.0254-.7045.0306-.9378-.0047-.0033-.0096-.0068-.0141-.0104-.1562-.1228-.1833-.3491-.0607-.5053.0306-.038.0619-.0748.1117-.1142.0487-.0365.1252-.0901.2598-.0933.0733-.001.1552.0242.2136.0636.0591.0391.096.0849.1204.1227.0471.0768.058.1306.0692.1793.0182.0959.0195.1795.0205.2773-.001.2791-.0321.6596-.0317 1.0181-.0003.2026.0104.3965.0366.5414.0204.1289.0619.2111.0745.2282.0003 0 .0007.0003.001.0006.0033.002.0098.0069.0206.0126.022.0106.0587.0265.1074.041.0977.03.2418.0584.4157.0797.3493.0433.8198.0613 1.346.061 1.5852.0003 3.6691-.1559 4.8711-.1568h14.1851c1.4078.0009 2.9499.1923 4.211.1907.6011.0006 1.1362-.0439 1.5443-.1591.4124-.1162.677-.2891.8277-.5285.1013-.1627.1652-.3725.1657-.6729 0-.1917-.0273-.4188-.0892-.6825-.046-.1936.0739-.387.2671-.4324.1932-.0455.3868.0739.4327.2675.0724.3066.1087.5876.109.8474.0007.4047-.092.7629-.276 1.0549-.1835.2933-.451.5085-.7561.657-.6125.2962-1.3782.3659-2.2252.3682-1.3271-.0013-2.8657-.192-4.211-.1913z"/><path d="m97.5784 80.7292c-.0944-.4421-.1575-.9168-.1575-1.3973 0-.477.0621-.9601.2238-1.4192.0656-.1875.2712-.286.4586-.2201.1868.0661.2856.2713.2195.4588-.1277.3627-.1826.7662-.1823 1.1805-.0003.4172.0552.8445.1416 1.2472.0412.1946-.0828.3857-.2771.4273-.0252.0051-.0504.0077-.0752.0077-.1662 0-.3156-.1156-.3514-.2849z"/><path d="m69.2771 80.9381c-.1901-.06-.2964-.2633-.2374-.4557.1141-.3743.1619-.7837.1619-1.2043 0-.4214-.0483-.8535-.1202-1.2672-.0347-.1981.096-.3872.2915-.4217.1956-.0352.3821.0967.4166.2952.0773.4441.1312.9162.1313 1.3937-.0001.476-.0531.9572-.1938 1.4193-.0478.1562-.1901.2568-.3437.2568-.0352 0-.071-.0051-.1062-.0161z"/><path d="m97.8529 81.0055c-.1943-.0422-.3166-.2338-.2742-.4278.0423-.1939.2345-.3169.4281-.2743.527.1155.992.1655 1.3958.1655.7884 0 1.3394-.1907 1.6764-.4362.338-.2485.47-.5376.472-.8067-.002-.2573-.121-.5199-.409-.7423-.288-.2197-.753-.3892-1.4111-.3888-.4565-.0003-1.0045.0813-1.6398.2804-.1895.0593-.3915-.0461-.451-.2359-.059-.1894.0464-.3915.2358-.4502.6943-.2175 1.313-.314 1.855-.314.7791 0 1.4041.1995 1.8471.536.442.335.693.8171.692 1.3148.001.5218-.276 1.0339-.768 1.3889-.494.3578-1.198.573-2.0994.573-.4627 0-.9788-.0567-1.5497-.1824z"/><path d="m6.74306 59.298c3.26954-.0073 6.60254-.4191 9.84454.1682.5072.0922 1.0188-.1308 1.1646-.6616.1275-.463-.153-1.0723-.6612-1.1646-3.4273-.6212-6.8923-.2436-10.34794-.2356-1.22108.003-1.22135 1.8968 0 1.8936z"/><path d="m17.9698 43.0101c3.1435 3.9239 3.3835 9.291 5.8678 13.5696.2539.437.8834.5228 1.2393.1594 1.7975-1.8351 2.4838-4.4128 2.9403-6.8676.4771-2.5657.6469-5.2293 1.5064-7.7089.3341-.9642-1.1906-1.375-1.5217-.4198-.81 2.3363-1.0107 4.8447-1.4278 7.2681-.3969 2.3044-.9171 4.8808-2.613 6.6124.4131.0533.8264.1065 1.2393.1597-1.267-2.1818-1.9342-4.6248-2.7127-7.0074-.8032-2.4586-1.7717-4.8465-3.402-6.8814-.2691-.3363-.837-.2791-1.1159 0-.3289.3288-.2688.7805 0 1.1159z"/><path d="m31.4025 40.9544c-.0036 4.4019-.274 8.9681 1.0323 13.2325.3566 1.1639 2.185.6673 1.8261-.5037-1.2565-4.1019-.968-8.4945-.9645-12.7288.001-1.2211-1.8928-1.2211-1.8939 0z"/><path d="m5.83887 58.1596c0-6.7463 0-13.492 0-20.2377 0-.523.42376-.947.94681-.947.52313 0 .94708.424.94708.947v20.2377c0 .5224-.42395.9471-.94708.9471-.52305 0-.94681-.4247-.94681-.9471z"/><path d="m32.1011 36.2256c1.6285 0 1.6285-2.5252 0-2.5252-1.6283 0-1.6283 2.5252 0 2.5252z"/><path d="m35.4513 41.5972c1.8908 2.0963 3.4459 4.5 4.6318 7.0597 1.1162 2.4089 1.0469 5.2309 2.5174 7.5037.3084.4766 1.0703.5453 1.3628 0 2.5694-4.7953 4.3421-9.9604 6.1105-15.0887.3327-.9649-1.1922-1.376-1.5218-.4198-1.7248 5.0018-3.4456 10.0355-5.9515 14.7121h1.3628c-.7024-1.0859-1.0153-2.3383-1.3173-3.581-.325-1.3369-.6431-2.6597-1.2002-3.9227-1.1842-2.6865-2.9166-5.2042-4.8785-7.3792-.6831-.7573-1.7958.3625-1.116 1.1159z"/><path d="m74.411 77.7441 1.5172-.009c.2054-.0013.3102.0826.3148.2517.0043.1339-.0962.201-.3016.201-.4826.003-.9643.0058-1.4452.0091l-.0195.7825 1.2088-.0068c.2056-.0017.3104.0814.3148.2491.0044.133-.0962.2005-.3017.2037l-1.2308.0064-.0305 1.2285 1.3554-.0067c.2054-.0017.3103.0816.3148.2494.0043.1339-.0962.2014-.3017.203l-1.5303.0089c-.0174 0-.0335-.0013-.048-.0044-.0117 0-.0235 0-.0349 0-.1312-.003-.1946-.0771-.1905-.223l.0724-2.9575c.0026-.124.0715-.1866.2055-.1881.0305 0 .0574.0023.0806.0067.0162-.0033.033-.0045.0504-.0045z"/><path d="m77.2941 80.7103c.3265.0219.5263-.0203.5991-.1272.0582-.0916.0261-.2029-.0964-.3339-.0815-.0878-.2665-.1511-.555-.1905-.2989-.0435-.4709-.159-.516-.3452-.0349-.1459-.0232-.2946.035-.4463.0626-.1675.155-.295.2777-.3828.1442-.1048.3111-.1655.5005-.1832.2127-.0187.3993.011.5595.0897.2085.102.3229.2192.3432.3521.0133.0871-.0137.1581-.0808.2119-.0829.0688-.2091.021-.3782-.1422-.0846-.0814-.2091-.1195-.3737-.1137-.1763.0088-.3068.0627-.3914.1621-.0713.0829-.0925.1693-.0633.2597.0262.0788.1275.1278.3039.1465.1382.0145.2667.0498.3848.1049.1601.0746.2717.1494.3343.2252.1473.1782.2099.3589.188.5422-.0232.1881-.1254.3424-.3059.4637-.1458.0978-.3397.1468-.5815.1485-.2041.0013-.3703-.0162-.4984-.0527-.0788-.0216-.1751-.0655-.2886-.131-.1019-.0581-.156-.131-.1619-.2187-.0057-.0962.0248-.1663.0919-.2098.0817-.0542.175-.0449.2798.0265.1283.0871.2594.1351.3934.1442z"/><path d="m79.6918 77.5057c.1485 0 .2228.0721.2228.2166-.0026.3714-.0095.7112-.0196 1.0184l.4438-.0023c.1792-.0013.2688.0717.2688.2185 0 .1487-.0852.2233-.2557.2233-.1559 0-.3119 0-.468 0l-.0369 1.7048c-.0016.1591-.081.2368-.2383.2343-.1312-.003-.1954-.0826-.1926-.2385l.0395-1.7006c-.1718 0-.3432 0-.5138 0-.1251 0-.1879-.0717-.1879-.2142 0-.1472.0691-.2208.2077-.2208.1675 0 .3359-.0007.5049-.0023l.0241-1.0339c.003-.136.0699-.2034.2012-.2034z"/><path d="m81.3034 80.6841h.0088c.0495 0 .0954.0126.1377.0375.0451.0261.0793.0625.1029.1091.0204.0393.0305.0816.0305.1267v.022c-.0043.0523-.0227.1001-.0547.1419-.0292.0382-.0612.0649-.0961.081-.0366.019-.0773.0275-.1225.0262-.0044 0-.0086 0-.0131 0-.0451-.0017-.0868-.0139-.1245-.0371-.0394-.0232-.0715-.0556-.0964-.0962-.0247-.0426-.0369-.0878-.0369-.1378 0-.0465.0114-.0903.0348-.1309.0249-.0424.056-.0769.094-.1031.0409-.0261.0861-.0393.1355-.0393z"/><path d="m83.5386 80.8284c.0087-.2943.1173-.5944.3258-.9006.1966-.2811.4873-.5154.8722-.7016.2506-.1209.3795-.3414.387-.6602.0043-.1806-.0782-.3143-.2472-.3998-.1646-.0833-.3352-.0965-.5115-.0396-.105.0351-.239.1471-.4021.3368-.1196.1371-.2346.1588-.3456.0655-.102-.0816-.1121-.172-.0306-.271.1675-.2056.3113-.3431.4307-.4131.1544-.092.3505-.1378.5881-.1378.2228 0 .4006.0407.5334.1223.2841.1781.4226.436.4154.7741-.0104.4544-.1976.7648-.5619.931-.3324.1517-.5859.3546-.7607.61-.1662.2419-.2544.4336-.2645.575.462.0013.9237.003 1.3858.0041.1559 0 .2332.0674.2318.2011-.0013.1403-.078.2095-.2295.2078h-1.6025c-.1499 0-.2214-.1013-.2141-.304z"/><path d="m87.318 77.709c.7827 0 1.174.5518 1.174 1.6547 0 1.1801-.4111 1.7707-1.2329 1.7707-.8088 0-1.2132-.5792-1.2132-1.7381 0-1.1248.4238-1.6873 1.2721-1.6873zm.0065.4127c-.564 0-.8459.4227-.8459 1.2682 0 .892.2601 1.3379.7805 1.3379.5245 0 .7869-.4569.7869-1.3705 0-.8239-.2406-1.2356-.7215-1.2356z"/><path d="m89.9595 77.951-.0131 2.7788h.2383c.15 0 .2252.0677.2252.2033 0 .1313-.0728.1968-.2186.1968h-.9924c-.1313 0-.1967-.0613-.1967-.1839.0013-.1456.0742-.2185.2186-.2185h.3256l.0042-2.3195-.1615.1533c-.1386.1326-.2551.1346-.3498.0064-.0759-.102-.0619-.202.0415-.2994l.435-.4089c.1179-.111.2265-.1546.3256-.131.0803.0171.1195.0919.1181.2226z"/><path d="m91.2877 77.746 1.5435-.0084c.1559-.0014.2347.0655.2361.201.0016.1456-.0729.2185-.223.2185h-1.3335l-.0875.8461c.2304-.1791.4663-.2692.7083-.2692.7157.0017 1.0677.3602 1.0559 1.0756-.016.9417-.4932 1.3905-1.4319 1.3466-.3468-.0161-.6017-.1571-.765-.4237-.0758-.1242-.0773-.2175-.0044-.2798.131-.1139.2412-.1129.3299.002.1489.1952.3229.293.5227.293.5668.0013.8743-.3092.9224-.9313.035-.4402-.1749-.6586-.6296-.6557-.2259.0013-.4095.0777-.5506.2295-.1883.1822-.3391.2713-.4527.2687-.1211-.0045-.1734-.0985-.1574-.2816l.1333-1.5045c.0205-.0845.0817-.1268.1835-.1268z"/><path d="m146.527 38.9265c-.886-.041-1.574-.0984-2.67-.1574-.464-.0248-.819-.4208-.794-.8845.025-.4638.421-.8193.884-.7942 1.12.0604 1.809.1181 2.657.1569.463.0209.822.414.801.8777-.021.4507-.393.8022-.839.8022-.013 0-.026-.0004-.039-.0007z"/><path d="m66.0138 58.6541-.0482-.0338-.0417-.041c-.9757-.969-1.6049-2.4267-2.031-4.1247-.4213-1.699-.6208-3.649-.6214-5.6049.0006-2.012.2119-4.0282.631-5.7811.4248-1.753 1.0346-3.2464 1.9543-4.2351l.0213-.0225.0248-.0221c.3044-.2658.6633-.4252 1.0366-.5282.3744-.1013.7689-.1449 1.1643-.1452.7807.0046 1.5587.1604 2.1852.5076l.0134.0077.0126.0081c.5604.3521 1.0508.84 1.4552 1.3618.4027.5247.7169 1.0758.89 1.6064.1151.3569-.0813.7399-.4384.8554-.3572.115-.7403-.0813-.8553-.4388-.1007-.3189-.3479-.7751-.672-1.192-.3198-.416-.7169-.8001-1.0899-1.0339-.3266-.1843-.9336-.3276-1.5008-.3231-.2926-.0003-.5761.0342-.8068.0975-.2149.0577-.3796.1416-.4755.2194-.6386.6857-1.2187 1.9907-1.597 3.5936-.3892 1.6234-.5941 3.549-.5938 5.4645-.0003 1.8623.1934 3.7178.5811 5.2777.3749 1.5279.9528 2.763 1.621 3.4394.2749.1742.7103.2903 1.211.2884.511.001 1.0811-.1159 1.5905-.3415.5066-.2226.9493-.5495 1.2505-.948.1666-.2482.2558-.4256.3202-.6219.0647-.2003.1059-.4408.1304-.8073.0246-.3746.3485-.6577.723-.6329.3746.0246.658.3485.6331.7232-.0282.4237-.0805.7864-.1935 1.1356-.1121.3485-.2822.6634-.499.982l-.009.0135-.0097.0129c-.4716.6273-1.1107 1.0833-1.7974 1.3863-.6882.3027-1.428.4566-2.1391.4573-.7331-.002-1.4458-.1607-2.03-.5603z"/><path d="m82.1888 57.1057c-.411-.0245-.7246-.3776-.6996-.7889.0338-.5657.0585-1.1341.0585-1.6929.0002-1.0291-.0844-2.0256-.3302-2.9098-.2469-.887-.6439-1.6558-1.2808-2.295-.291-.2918-.2905-.7638.001-1.0549.2913-.2911.764-.2905 1.0549.001.849.8497 1.3663 1.8778 1.6625 2.9504.2972 1.0749.3837 2.1999.3842 3.3083 0 .6021-.0263 1.2001-.0612 1.7826-.0239.3956-.3524.7009-.7439.7009-.0151 0-.0303-.0003-.0454-.0017z"/><path d="m75.1182 57.1968c-.4613-.0223-.8172-.4144-.7951-.8758.0178-.3679.0243-.7406.0243-1.1178.0004-1.071-.0551-2.1766-.0554-3.3042.0003-1.0362.0474-2.0926.2403-3.1562.0824-.4544.5177-.7561.9722-.6735.4545.0822.7561.5176.6736.9723-.1668.9177-.2136 1.8726-.2133 2.8574-.0003 1.0714.055 2.177.0556 3.3042 0 .3968-.0072.7967-.0265 1.1981l.0001.0003c-.0218.4479-.3914.7964-.8349.7961-.0136 0-.0272 0-.0409-.001z"/><path d="m74.5827 48.9648c-.1618-1.7154-.2458-3.4767-.2458-5.2347 0-1.6536.0742-3.3038.2288-4.9098l.0468-.487.4602-.1672c.823-.2995 1.6138-.4424 2.3586-.4424 1.7741-.0061 3.2498.8315 4.2093 2.0566.9664 1.2248 1.4684 2.819 1.4702 4.4509.0006 1.841-.6509 3.7582-2.0973 5.2086-.3022.3027-.793.3034-1.0962.001-.3028-.3023-.3033-.7932-.001-1.0962 1.1217-1.123 1.6435-2.6293 1.6442-4.1134.0016-1.3115-.416-2.5839-1.1355-3.4894-.7264-.9055-1.7029-1.4618-2.9938-1.4679-.4189 0-.8747.0613-1.3684.2-.1184 1.3938-.1757 2.823-.1757 4.2561 0 1.7083.0816 3.4225.2386 5.0896.0402.4259-.2728.8042-.6989.8441-.0247.0024-.0493.0036-.0734.0036-.3953 0-.7334-.3011-.7708-.7025z"/><path d="m87.0857 58.7887c-.714-.3495-1.3579-.9513-1.6218-1.8113-.0023-.0078-.0048-.0158-.0071-.0239-.0003-.0013-.0006-.003-.0009-.0042-.0002-.0006-.0007-.001-.0007-.0016-.0081-.03-.0141-.0601-.0186-.0896-.445-2.7082-.998-6.3615-.9991-9.7671.0007-1.7007.1369-3.3419.5108-4.7935.3749-1.4472.9903-2.7273 2.0095-3.6287l.053-.0467.061-.0359c.6804-.3995 1.4277-.6199 2.18-.6199.7796-.0013 1.5602.2424 2.2321.7319l.0181.013.019.0157c.5212.435.8983 1.0307 1.2033 1.7236.3035.6941.5321 1.4953.709 2.3715.3517 1.7506.4931 3.8043.4937 5.8386 0 1.8506-.1184 3.6813-.315 5.2409-.2007 1.565-.4602 2.8322-.8138 3.6658-.1039.2378-.2127.4457-.3774.6405-.3525.4128-.8232.6606-1.3381.832-.5169.1677-1.0905.251-1.6788.2517-.7847-.0014-1.5972-.1475-2.3182-.5029zm.6545-1.3194c.4558.2284 1.0688.351 1.6637.3494.4452.0007.8798-.0668 1.2217-.1791.344-.1091.5832-.2717.6678-.3795l.0057-.0065.0023-.003c.0113-.0099.0778-.1083.1442-.2659.0678-.1577.1427-.3739.2156-.6337.1464-.5202.2868-1.214.405-2.014.2368-1.6014.3882-3.6341.3878-5.6765.0004-1.4731-.0784-2.9527-.2552-4.2793-.1754-1.326-.4547-2.5009-.8238-3.3405-.2379-.5473-.5141-.943-.7742-1.1634-.4243-.301-.8742-.4366-1.3492-.4382-.4437 0-.9126.1245-1.3742.3828-.6813.6234-1.1833 1.5998-1.5035 2.8442-.3291 1.2724-.4641 2.8048-.4636 4.4248-.001 3.234.5313 6.8073.9729 9.4889.1313.3798.4112.6637.8569.8894z"/><path d="m100.736 58.2123c-.8825-.5405-1.6177-1.397-1.8134-2.5316-.0582-.3361.1672-.6563.5036-.7146.3363-.0582.6558.1674.7148.5036.124.7148.579 1.2763 1.244 1.691.661.4101 1.517.6341 2.281.6322.816.0051 1.479-.2605 1.749-.6167l.026-.0329.03-.029c.362-.3493.558-.6277.895-1.2635.237-.4892.404-.8974.402-1.3201 0-.1991-.034-.4118-.128-.6638-.63-.8574-1.896-2.163-3.225-3.6142-1.364-1.4941-2.805-3.1547-3.7674-4.7891-.6381-1.092-1.0812-2.1779-1.0859-3.2567-.0102-.9278.3799-1.8465 1.1963-2.5132.813-.6722 1.993-1.1358 3.637-1.4234.159-.0281.331-.0442.511-.0442.507-.0017 1.095.1342 1.67.4995l.06.0378.049.0506c.832.8507 1.718 1.9127 1.928 3.3061.049.3378-.185.6515-.523.7005-.338.0494-.651-.1845-.701-.5223-.127-.9198-.773-1.7894-1.531-2.5629-.353-.2088-.67-.272-.952-.2733-.106 0-.206.0096-.299.0258-1.521.2623-2.502.6885-3.058 1.1562-.5534.4727-.7414.9425-.7512 1.5628-.0017.5382.1817 1.1914.5252 1.9026.342.7112.837 1.4764 1.416 2.2492 1.158 1.5483 2.646 3.1253 3.899 4.4781.838.9045 1.568 1.7029 2.051 2.3701l.043.0601.028.0684c.169.4153.245.819.244 1.1953-.002.7561-.288 1.3599-.53 1.8668l-.004.0087-.005.0107c-.349.6702-.659 1.131-1.117 1.5689-.646.7589-1.656 1.0382-2.682 1.0429-.993-.0016-2.043-.2713-2.93-.8164z"/><path d="m110.805 58.247-.052-.0326-.044-.0413c-.552-.5224-.91-.9636-1.146-1.436s-.33-.9309-.424-1.4434c-.061-.3391.163-.6638.502-.7254.339-.0613.663.1636.725.5024.09.4999.164.8135.312 1.1082.144.2862.376.5972.843 1.0452.668.4095 1.29.5724 1.864.5738.986.0002 1.884-.4938 2.56-1.2922.674-.7954 1.09-1.8832 1.088-2.9494-.004-1.0087-.351-1.9868-1.192-2.7904-.724-.4785-1.607-.8283-2.508-1.2182-.916-.4-1.858-.8434-2.631-1.5937l-.022-.0213-.019-.0223c-1.053-1.2424-1.503-2.7549-1.501-4.2541 0-1.0423.212-2.0843.585-3.0604l.014-.0387.02-.0362c.252-.4651.515-.8333.835-1.1327.317-.2969.673-.5117 1.074-.7054.612-.3108 1.303-.4492 1.996-.4502.993.0023 2.002.2833 2.808.8585.804.5669 1.401 1.4911 1.395 2.6276 0 .193-.017.3905-.05.5922-.056.3397-.377.5695-.717.5131-.34-.0562-.57-.3775-.513-.7171.023-.1371.033-.2662.033-.3882-.006-.7031-.326-1.21-.875-1.6144-.548-.3962-1.329-.6267-2.081-.6244-.525-.0007-1.03.1094-1.431.3146l-.009.0045-.003.0016c-.347.1675-.576.3131-.774.4977-.191.1797-.368.4108-.572.7815-.314.8358-.489 1.7184-.488 2.5764.002 1.2496.361 2.4358 1.188 3.4264.571.55 1.357.9417 2.235 1.3215.887.387 1.86.7599 2.748 1.355l.041.0275.036.0332c1.132 1.0484 1.629 2.4164 1.625 3.7365-.002 1.3844-.52 2.7291-1.382 3.7536-.858 1.021-2.096 1.7345-3.513 1.7348-.002 0-.003 0-.005 0-.837 0-1.718-.2549-2.575-.7977z"/><path d="m127.641 57.1652c-.045-1.6697-.686-3.2654-1.144-4.9992-.083-.3153.106-.6377.421-.7194.315-.0826.638.1063.72.4212.421 1.6319 1.12 3.3176 1.182 5.2625.009.3257-.247.5974-.572.607-.006 0-.012.0003-.018.0003-.317 0-.58-.2529-.589-.5724z"/><path d="m119.741 57.3116c-.308-.1287-.453-.4827-.324-.7906.613-1.455.802-3.0268 1.334-4.7949.097-.3192.435-.4996.754-.4024.319.0964.5.4343.403.7535-.501 1.6363-.686 3.2498-1.376 4.9104-.097.2318-.321.3711-.557.3711-.078 0-.157-.0152-.234-.0471z"/><path d="m126.254 51.9828c-.334-2.9392-.846-6.1107-1.991-8.7736-.59.9859-1.013 2.1844-1.324 3.4623-.414 1.6913-.639 3.509-.869 5.1338-.052.3662-.391.6211-.758.5692-.366-.052-.621-.3915-.569-.7577.229-1.6073.455-3.4686.894-5.2638.441-1.7942 1.091-3.5362 2.229-4.8934l.645-.7658.462.8872c1.625 3.1236 2.223 6.8812 2.613 10.2488.042.3676-.222.6999-.589.7422-.026.0029-.052.0042-.078.0042-.335 0-.625-.252-.665-.5934z"/><path d="m137.784 55.8603c-.296-.2088-.559-.5167-.712-.9159l-.012-.03-.008-.0293c-1.088-3.7724-2.896-7.3469-4.445-11.1324l-.005-.0132-.005-.0133c-.013-.0358-.026-.0684-.04-.0972-.269.1682-.626.1514-.88-.0657-.314-.2682-.351-.7397-.083-1.0533.227-.2736.589-.4996 1.001-.4971.386.0004.708.1889.924.4089.216.2195.364.4809.474.7729 1.509 3.6981 3.34 7.3042 4.483 11.2389.02.0445.045.0846.075.1194.313-1.5602.402-3.1915.402-4.8647 0-2.001-.128-4.0592-.128-6.1205 0-.7307.016-1.4612.061-2.1906.025-.4117.379-.725.791-.6995.412.0248.725.3791.7.7908-.043.6904-.059 1.3909-.059 2.0993 0 1.9994.128 4.0575.128 6.1205 0 1.9165-.11 3.8404-.554 5.7253l-.019.0782-.034.0719c-.102.2191-.287.3991-.482.4976-.196.1007-.394.1342-.576.1352-.369-.0039-.698-.1291-.997-.3362z"/><path d="m131.723 57.205c-.466-.0248-.823-.4224-.799-.888.036-.6686.049-1.3443.049-2.0259 0-1.9291-.107-3.9053-.108-5.896.001-1.85.093-3.7152.468-5.5675.093-.4572.539-.7528.996-.6603.457.0927.753.5383.66.9956-.342 1.6874-.434 3.439-.434 5.2322-.001 1.9295.107 3.9053.107 5.896 0 .7032-.013 1.4086-.051 2.115h.001c-.024.4504-.397.8003-.843.7999-.015 0-.03-.0003-.046-.001z"/><path d="m145.874 56.3617c0-5.8311 0-11.6625 0-17.4937 0-.4608.373-.8338.834-.8338.46 0 .834.373.834.8338v17.4937c0 .4609-.374.8342-.834.8342-.461 0-.834-.3733-.834-.8342z"/><path d="m153.832 58.138c-.73-.5427-1.264-1.3998-1.409-2.4896l-.002-.0191-.002-.019c-.006-.0842-.007-.1552-.007-.2146 0-.0852.003-.1407.002-.1911 0-.0074 0-.0134 0-.0193-.002-.3217.258-.5847.58-.5867.322-.0023.585.2572.587.5793v.0267c0 .0856-.003.1407-.003.1911 0 .0329.001.0665.004.1124.117.8021.466 1.3291.95 1.6969.488.368 1.139.5596 1.83.5593.746.0007 1.527-.2266 2.149-.6464.624-.422 1.088-1.0177 1.276-1.7977.103-.415.154-.8584.154-1.2986.005-1.0855-.322-2.1491-.792-2.7213-.662-.7883-1.581-1.3168-2.584-1.8351-1.002-.5225-2.083-1.0262-2.984-1.8584-.6-.5535-1.109-1.2637-1.414-2.1798-.176-.5173-.256-1.0456-.256-1.5661.002-1.4425.605-2.8129 1.518-3.841.914-1.0246 2.162-1.732 3.516-1.7362 1.028-.0045 2.086.4354 2.961 1.3722l.023.0245.02.0268c.165.2223.293.4078.395.596.103.1872.177.3779.225.5699v.002l.001.0035c.082.3321.087.6206.087.8687v.0669c.001.3223-.26.5837-.582.5847-.322.0006-.583-.2601-.584-.5818 0-.0259 0-.0491 0-.0698 0-.2342-.006-.3949-.053-.5905-.028-.1067-.058-.1839-.118-.2952-.058-.1065-.148-.2434-.286-.4299-.69-.7157-1.39-.9771-2.089-.9816-.926-.0039-1.904.5101-2.645 1.345-.742.8312-1.226 1.9581-1.223 3.0659 0 .4011.061.8006.194 1.1934.245.7254.621 1.2491 1.102 1.6973.481.4466 1.074.809 1.724 1.1563 1.292.6999 2.825 1.3172 3.953 2.6519l.004.0048.004.0046c.701.8828 1.043 2.1504 1.048 3.4524 0 .5283-.059 1.0627-.186 1.5751-.259 1.085-.928 1.9327-1.758 2.4887-.832.5583-1.824.8435-2.8.8448-.902-.0003-1.801-.2462-2.53-.7922z"/><path d="m95.5527 56.3614c0-4.9795 0-9.959 0-14.9382 0-.4616.3741-.8356.8352-.8356s.8351.374.8351.8356v14.9382c0 .4614-.374.8352-.8351.8352s-.8352-.3738-.8352-.8352z"/><path d="m96.2196 36.6238c1.6282 0 1.6282-2.5254 0-2.5254-1.6287 0-1.6287 2.5254 0 2.5254z"/><path d="m145.822 38.1128c-.015-.464.349-.8519.813-.8667.686-.021 1.712-.1284 2.748-.1572.464-.0125.85.3534.863.8178.012.464-.354.85-.818.8629-.953.0251-1.951.1306-2.739.1568-.009.0003-.018.0003-.027.0003-.453 0-.826-.3588-.84-.8139z"/><path d="m75.3552 49.7217c-.4584 0-.8298-.3714-.8298-.8296 0-.4586.3714-.8296.8298-.8296h5.1106c.4583 0 .8298.371.8298.8296 0 .4582-.3715.8296-.8298.8296-1.7038 0-3.4072 0-5.1106 0z"/><path d="m121.87 52.7382c-.459-.051-.791-.465-.74-.9245.051-.46.465-.7914.925-.74.884.0977 1.639.1532 2.39.1532.685-.0003 1.37-.0457 2.159-.1513.458-.0613.88.2608.941.7193.061.4586-.261.8796-.719.941-.853.1142-1.621.1659-2.381.1659-.835 0-1.656-.0617-2.575-.1636z"/></g></svg>