<?xml version="1.0" encoding="UTF-8" standalone="no"?><!DOCTYPE svg PUBLIC "-//W3C//DTD SVG 1.1//EN" "http://www.w3.org/Graphics/SVG/1.1/DTD/svg11.dtd"><svg width="100%" height="100%" viewBox="0 0 100 100" version="1.1" xmlns="http://www.w3.org/2000/svg" xmlns:xlink="http://www.w3.org/1999/xlink" xml:space="preserve" xmlns:serif="http://www.serif.com/" style="fill-rule:evenodd;clip-rule:evenodd;stroke-linecap:round;stroke-linejoin:round;stroke-miterlimit:1.5;"><path d="M71.167,11.712c9.136,13.674 14.353,29.303 9.079,45.284c-4.76,14.424 -17.733,22.969 -32.63,12.267c-7.053,-5.066 -11.629,-15.29 -7.047,-22.886c5.105,-8.463 16.434,-0.965 19.507,4.794c7.179,13.451 2.528,31.589 -13.264,39.783c-18.701,9.703 -26.75,-8.845 -26.602,-8.85" style="fill:none;fill-rule:nonzero;stroke:#6c5fbc;stroke-width:2.65px;"/><path d="M90.525,15.596c-1.924,0.375 -3.81,-0.003 -5.714,-0.294c-6.25,-0.953 -12.642,-3.768 -16.525,-8.41c2.237,5.953 2.898,14.357 -1.863,19.398" style="fill:none;fill-rule:nonzero;stroke:#6c5fbc;stroke-width:2.65px;"/></svg>
