<?xml version="1.0" encoding="UTF-8" standalone="no"?><!DOCTYPE svg PUBLIC "-//W3C//DTD SVG 1.1//EN" "http://www.w3.org/Graphics/SVG/1.1/DTD/svg11.dtd"><svg width="100%" height="100%" viewBox="0 0 375 280" version="1.1" xmlns="http://www.w3.org/2000/svg" xmlns:xlink="http://www.w3.org/1999/xlink" xml:space="preserve" xmlns:serif="http://www.serif.com/" style="fill-rule:evenodd;clip-rule:evenodd;stroke-linecap:round;stroke-linejoin:round;"><g opacity="0.25"><path d="M54.114,30.38l-7.995,24.214l-8.048,-24.197" style="fill:none;fill-rule:nonzero;stroke:#47416e;stroke-width:4.64px;"/><path d="M34.048,29.31c0.332,-0.001 0.625,0.02 0.898,0.063c2.147,0.383 2.442,2.137 5.135,2.134c3.025,-0.003 3.023,-2.207 6.009,-2.21c3.025,-0.004 3.027,2.201 6.013,2.198c2.693,-0.003 2.965,-1.737 5.131,-2.146c0.253,-0.043 0.565,-0.065 0.897,-0.065" style="fill:none;fill-rule:nonzero;stroke:#47416e;stroke-width:4.64px;"/><path d="M36.054,26.011c0.001,1.156 0.159,2.311 0.492,3.36c1.854,0.383 2.09,2.138 4.393,2.135c2.596,-0.003 2.593,-2.207 5.15,-2.21c2.596,-0.003 2.598,2.202 5.155,2.199c2.303,-0.002 2.554,-1.736 4.388,-2.145c0.312,-1.049 0.486,-2.205 0.485,-3.36c-0.007,-6.078 -4.501,-10.996 -10.043,-10.99c-5.543,0.006 -10.026,4.933 -10.02,11.011Z" style="fill:none;fill-rule:nonzero;stroke:#47416e;stroke-width:4.64px;"/><path d="M36.062,32.602l20.062,-0.021" style="fill:none;fill-rule:nonzero;stroke:#47416e;stroke-width:4.64px;"/><path d="M47.807,188.545c-5.406,-0.369 -10.809,-2.965 -15.078,-7.72c-4.23,-4.713 -6.546,-10.708 -6.891,-16.701" style="fill:none;fill-rule:nonzero;stroke:#47416e;stroke-width:4.64px;"/><path d="M23.617,162.731l2.401,-0.639l24.364,-6.502c3.279,-0.874 6.145,2.34 5.321,5.977l-1.725,7.703l-0.118,0.492l-1.51,6.697l-0.137,0.642l-2.55,11.233l-0.627,2.739c-0.588,2.631 -2.913,4.32 -5.293,3.889c-5.854,-1.055 -11.354,-4.014 -15.74,-8.899c-4.367,-4.841 -6.995,-10.943 -7.944,-17.429c-0.388,-2.654 1.177,-5.263 3.558,-5.903Z" style="fill:none;fill-rule:nonzero;stroke:#47416e;stroke-width:4.64px;"/><path d="M38.324,169.594c-1.724,-0.002 -3.124,1.549 -3.126,3.464c-0.002,1.914 1.394,3.468 3.119,3.47c1.724,0.002 3.124,-1.549 3.126,-3.464c0.002,-1.915 -1.394,-3.468 -3.119,-3.47Z" style="fill:none;fill-rule:nonzero;stroke:#47416e;stroke-width:4.64px;"/><path d="M49.876,170.913c1.074,-1.197 2.617,-1.58 3.982,-1.108l-1.961,8.73c-0.741,-0.194 -1.443,-0.58 -2.028,-1.223c-1.599,-1.778 -1.596,-4.645 0.007,-6.399Z" style="fill:none;fill-rule:nonzero;stroke:#47416e;stroke-width:4.64px;"/><path d="M47.43,158.71c0.292,1.242 -0.003,2.611 -0.862,3.573c-1.31,1.454 -3.417,1.452 -4.723,-0.005c-0.429,-0.471 -0.721,-1.049 -0.857,-1.67" style="fill:none;fill-rule:nonzero;stroke:#47416e;stroke-width:4.64px;"/><path d="M116.087,117.903l20.008,-21.893c2.13,-2.331 2.134,-6.098 0.009,-8.433c-2.124,-2.335 -5.559,-2.338 -7.689,-0.008l-20.008,21.894c-2.13,2.33 -2.134,6.097 -0.009,8.432c2.125,2.335 5.56,2.339 7.689,0.008Z" style="fill:none;fill-rule:nonzero;stroke:#47416e;stroke-width:4.64px;"/><path d="M131.903,93.094c-2.306,2.523 -3.124,1.623 -5.449,4.146c-2.306,2.523 -1.487,3.423 -3.793,5.967c-2.306,2.523 -3.144,1.623 -5.45,4.146c-2.305,2.523 -1.486,3.444 -3.792,5.967" style="fill:none;fill-rule:nonzero;stroke:#47416e;stroke-width:4.64px;"/><path d="M122.994,120.437l15.396,-16.848c2.56,-2.801 2.565,-7.317 0.011,-10.123l-24.619,26.939c2.534,2.828 6.671,2.833 9.212,0.032Z" style="fill:none;fill-rule:nonzero;stroke:#47416e;stroke-width:4.64px;"/><path d="M121.51,85.037l-15.397,16.848c-2.559,2.8 -2.564,7.316 -0.011,10.122l24.62,-26.939c-2.534,-2.828 -6.672,-2.832 -9.212,-0.031Z" style="fill:none;fill-rule:nonzero;stroke:#47416e;stroke-width:4.64px;"/><path d="M224.71,187.289l19.516,-0.021c3.474,-0.003 6.281,-3.088 6.277,-6.898l-0.004,-4.109l-32.085,0.035l0.004,4.109c0.005,3.809 2.818,6.888 6.292,6.884Z" style="fill:none;fill-rule:nonzero;stroke:#47416e;stroke-width:4.64px;"/><path d="M219.403,169.702l30.094,-0.032c1.659,-0.002 3.007,1.473 3.009,3.292c0.002,1.819 -1.343,3.297 -3.002,3.299l-30.094,0.033c-1.659,0.001 -3.007,-1.474 -3.009,-3.293c-0.002,-1.819 1.343,-3.297 3.002,-3.299Z" style="fill:none;fill-rule:nonzero;stroke:#47416e;stroke-width:4.64px;"/><path d="M233.396,152.095l2.068,-0.002c8.295,-0.009 15.016,7.346 15.026,16.442l0.001,1.134l-32.084,0.035l-0.002,-1.135c-0.009,-9.095 6.696,-16.465 14.991,-16.474Z" style="fill:none;fill-rule:nonzero;stroke:#47416e;stroke-width:4.64px;"/><path d="M250.715,176.795c-0.76,0.9 -1.305,2.12 -2.73,2.122c-1.425,0.002 -1.972,-1.218 -2.735,-2.116" style="fill:none;fill-rule:nonzero;stroke:#47416e;stroke-width:4.64px;"/><path d="M232.389,176.815c-0.76,0.9 -1.306,2.12 -2.73,2.122c-1.444,0.001 -1.992,-1.218 -2.754,-2.116" style="fill:none;fill-rule:nonzero;stroke:#47416e;stroke-width:4.64px;"/><path d="M220.466,178.925c1.425,-0.001 1.97,-1.222 2.73,-2.121" style="fill:none;fill-rule:nonzero;stroke:#47416e;stroke-width:4.64px;"/><path d="M241.543,176.805c-0.761,0.9 -1.306,2.12 -2.73,2.122c-1.425,0.001 -1.973,-1.218 -2.735,-2.116" style="fill:none;fill-rule:nonzero;stroke:#47416e;stroke-width:4.64px;"/><path d="M303.539,89.985c3.888,-3.762 9.179,-6.047 15.015,-5.997c5.796,0.049 11.082,2.387 15.02,6.201" style="fill:none;fill-rule:nonzero;stroke:#47416e;stroke-width:4.64px;"/><path d="M332.647,81.349c-4.193,-2.787 -9.012,-4.376 -14.125,-4.424c-5.991,-0.049 -11.556,2.042 -16.185,5.675c-1.875,1.475 -2.405,4.364 -1.198,6.591l1.266,2.334l5.24,9.508c0,-0 3.72,6.767 7.226,13.148c1.695,3.084 5.637,3.131 7.319,0.094l12.514,-22.544l1.232,-2.225c1.213,-2.203 0.669,-5.135 -1.242,-6.635c-0.643,-0.558 -1.345,-1.051 -2.047,-1.522Z" style="fill:none;fill-rule:nonzero;stroke:#47416e;stroke-width:4.64px;"/><path d="M325.51,94.441c0.468,0.214 0.995,0.215 1.463,0.001c0.254,-0.106 0.45,-0.256 0.645,-0.448c0.352,-0.407 0.567,-0.941 0.567,-1.498c0.001,-0.578 -0.194,-1.091 -0.564,-1.498c-0.37,-0.407 -0.838,-0.622 -1.365,-0.623c-0.527,-0 -0.996,0.213 -1.367,0.62c-0.371,0.406 -0.567,0.941 -0.568,1.497c0,0.557 0.214,1.092 0.565,1.499c0.175,0.214 0.39,0.364 0.624,0.45Z" style="fill:#201d67;fill-rule:nonzero;"/><path d="M317.823,92.334c0.468,0.214 0.995,0.215 1.463,0.002c0.235,-0.107 0.45,-0.257 0.645,-0.449c0.352,-0.406 0.567,-0.941 0.567,-1.498c0.001,-0.578 -0.193,-1.091 -0.564,-1.498c-0.37,-0.407 -0.838,-0.622 -1.365,-0.623c-0.527,-0 -0.996,0.213 -1.367,0.62c-0.371,0.406 -0.567,0.919 -0.568,1.497c0,0.557 0.214,1.092 0.565,1.499c0.175,0.193 0.37,0.343 0.624,0.45Z" style="fill:#201d67;fill-rule:nonzero;"/><path d="M309.468,93.996c0.721,0.793 2.009,0.794 2.732,0.003c0.352,-0.406 0.567,-0.941 0.568,-1.497c0.001,-0.578 -0.194,-1.092 -0.564,-1.499c-0.371,-0.407 -0.839,-0.622 -1.366,-0.622c-0.254,-0.001 -0.507,0.063 -0.722,0.17c-0.234,0.107 -0.449,0.256 -0.645,0.449c-0.371,0.406 -0.567,0.92 -0.567,1.497c0.019,0.535 0.233,1.092 0.564,1.499Z" style="fill:#201d67;fill-rule:nonzero;"/><path d="M312.914,101.745c0.097,0.279 0.234,0.493 0.409,0.707c0.721,0.793 2.009,0.794 2.732,0.003c0.176,-0.214 0.313,-0.428 0.411,-0.706c0.098,-0.256 0.157,-0.535 0.157,-0.791c0,-0.279 -0.058,-0.557 -0.155,-0.792c-0.098,-0.257 -0.234,-0.493 -0.409,-0.707c-0.371,-0.407 -0.839,-0.622 -1.366,-0.622c-0.254,-0 -0.507,0.063 -0.722,0.17c-0.234,0.107 -0.449,0.257 -0.645,0.449c-0.371,0.406 -0.567,0.92 -0.567,1.497c-0.001,0.257 0.058,0.536 0.155,0.792Z" style="fill:#201d67;fill-rule:nonzero;"/><path d="M320.624,101.754c0.097,0.257 0.233,0.492 0.409,0.706c0.74,0.793 2.028,0.794 2.732,0.003c0.176,-0.213 0.313,-0.427 0.41,-0.705c0.098,-0.257 0.157,-0.535 0.157,-0.792c0.001,-0.578 -0.194,-1.092 -0.564,-1.499c-0.195,-0.193 -0.409,-0.343 -0.643,-0.45c-0.235,-0.107 -0.488,-0.172 -0.742,-0.172c-0.527,-0.001 -0.995,0.213 -1.367,0.619c-0.176,0.214 -0.312,0.449 -0.41,0.706c-0.118,0.257 -0.157,0.535 -0.157,0.792c0.019,0.257 0.058,0.535 0.175,0.792Z" style="fill:#201d67;fill-rule:nonzero;"/><path d="M319.895,107.896c-0.371,-0.407 -0.839,-0.621 -1.366,-0.622c-0.254,-0 -0.507,0.064 -0.722,0.17c-0.234,0.107 -0.449,0.257 -0.645,0.449c-0.176,0.214 -0.312,0.449 -0.41,0.706c-0.098,0.257 -0.157,0.535 -0.157,0.792c-0.001,0.578 0.213,1.091 0.564,1.498c0.546,0.579 1.385,0.794 2.107,0.452c0.254,-0.107 0.45,-0.256 0.645,-0.449c0.352,-0.406 0.567,-0.941 0.567,-1.497c0.001,-0.278 -0.057,-0.557 -0.155,-0.792c-0.117,-0.257 -0.253,-0.493 -0.428,-0.707Z" style="fill:#201d67;fill-rule:nonzero;"/><path d="M119.65,252.708c3.888,3.763 9.179,6.047 15.015,5.998c5.796,-0.049 11.082,-2.388 15.02,-6.201" style="fill:none;fill-rule:nonzero;stroke:#47416e;stroke-width:4.64px;"/><path d="M148.758,261.345c-4.193,2.786 -9.012,4.375 -14.125,4.423c-5.991,0.05 -11.556,-2.042 -16.185,-5.675c-1.875,-1.475 -2.405,-4.363 -1.198,-6.59l1.266,-2.334l5.24,-9.508c0,-0 3.72,-6.767 7.226,-13.149c1.695,-3.083 5.637,-3.13 7.319,-0.093l12.514,22.544l1.232,2.224c1.213,2.203 0.669,5.136 -1.242,6.636c-0.643,0.557 -1.345,1.05 -2.047,1.522Z" style="fill:none;fill-rule:nonzero;stroke:#47416e;stroke-width:4.64px;"/><path d="M141.621,248.253c0.468,-0.215 0.995,-0.216 1.463,-0.002c0.254,0.107 0.45,0.256 0.645,0.449c0.352,0.406 0.567,0.941 0.567,1.497c0.001,0.578 -0.194,1.092 -0.564,1.499c-0.37,0.407 -0.838,0.621 -1.365,0.622c-0.527,0.001 -0.996,-0.213 -1.367,-0.619c-0.371,-0.406 -0.567,-0.941 -0.568,-1.498c0,-0.556 0.214,-1.091 0.565,-1.498c0.175,-0.215 0.39,-0.365 0.624,-0.45Z" style="fill:#201d67;fill-rule:nonzero;"/><path d="M133.934,250.359c0.468,-0.214 0.995,-0.215 1.463,-0.001c0.235,0.107 0.45,0.256 0.645,0.449c0.352,0.406 0.567,0.941 0.567,1.497c0.001,0.578 -0.193,1.092 -0.564,1.499c-0.37,0.407 -0.838,0.621 -1.365,0.622c-0.527,0 -0.996,-0.213 -1.367,-0.619c-0.371,-0.406 -0.567,-0.92 -0.568,-1.498c0,-0.556 0.214,-1.091 0.565,-1.498c0.175,-0.193 0.37,-0.343 0.624,-0.451Z" style="fill:#201d67;fill-rule:nonzero;"/><path d="M125.579,248.697c0.721,-0.792 2.009,-0.794 2.732,-0.003c0.352,0.407 0.567,0.941 0.568,1.498c0.001,0.578 -0.194,1.092 -0.564,1.499c-0.371,0.407 -0.839,0.621 -1.366,0.622c-0.254,-0 -0.507,-0.064 -0.722,-0.171c-0.234,-0.106 -0.449,-0.256 -0.645,-0.448c-0.371,-0.407 -0.567,-0.92 -0.567,-1.498c0.019,-0.535 0.233,-1.092 0.564,-1.499Z" style="fill:#201d67;fill-rule:nonzero;"/><path d="M129.025,240.948c0.097,-0.278 0.234,-0.493 0.409,-0.707c0.721,-0.792 2.009,-0.794 2.732,-0.003c0.176,0.214 0.313,0.428 0.411,0.706c0.098,0.257 0.157,0.535 0.157,0.792c0,0.278 -0.058,0.556 -0.155,0.792c-0.098,0.257 -0.234,0.492 -0.409,0.707c-0.371,0.407 -0.839,0.621 -1.366,0.622c-0.254,-0 -0.507,-0.064 -0.722,-0.171c-0.234,-0.107 -0.449,-0.256 -0.645,-0.449c-0.371,-0.406 -0.567,-0.919 -0.567,-1.497c-0.001,-0.257 0.058,-0.535 0.155,-0.792Z" style="fill:#201d67;fill-rule:nonzero;"/><path d="M136.735,240.94c0.097,-0.257 0.233,-0.493 0.409,-0.707c0.74,-0.793 2.028,-0.794 2.732,-0.003c0.176,0.214 0.313,0.428 0.41,0.706c0.098,0.257 0.157,0.535 0.157,0.792c0.001,0.577 -0.194,1.091 -0.564,1.498c-0.195,0.193 -0.409,0.343 -0.643,0.45c-0.235,0.108 -0.488,0.172 -0.742,0.172c-0.527,0.001 -0.995,-0.213 -1.367,-0.619c-0.176,-0.214 -0.312,-0.449 -0.41,-0.706c-0.118,-0.256 -0.157,-0.534 -0.157,-0.791c0.019,-0.257 0.058,-0.535 0.175,-0.792Z" style="fill:#201d67;fill-rule:nonzero;"/><path d="M136.006,234.797c-0.371,0.407 -0.839,0.622 -1.366,0.622c-0.254,0.001 -0.507,-0.063 -0.722,-0.17c-0.234,-0.107 -0.449,-0.256 -0.645,-0.449c-0.176,-0.214 -0.312,-0.449 -0.41,-0.706c-0.098,-0.256 -0.157,-0.535 -0.157,-0.791c-0.001,-0.578 0.213,-1.092 0.564,-1.499c0.546,-0.578 1.385,-0.793 2.107,-0.452c0.254,0.107 0.45,0.257 0.645,0.449c0.352,0.406 0.567,0.941 0.567,1.497c0.001,0.279 -0.057,0.557 -0.155,0.793c-0.117,0.256 -0.253,0.492 -0.428,0.706Z" style="fill:#201d67;fill-rule:nonzero;"/><path d="M224.454,27.826c1.254,-0.307 2.557,-0.264 3.791,0.123c1.235,0.388 2.361,1.108 3.277,2.095c0.388,0.439 0.605,1.026 0.606,1.637c-0,0.611 -0.216,1.198 -0.603,1.638l-2.222,2.527" style="fill:none;fill-rule:nonzero;stroke:#47416e;stroke-width:4.64px;"/><path d="M209.913,44.085c-0.267,1.392 -0.213,2.835 0.156,4.198c0.37,1.364 1.043,2.605 1.96,3.611c0.194,0.215 0.425,0.385 0.68,0.501c0.255,0.116 0.528,0.176 0.804,0.176c0.275,-0.001 0.549,-0.061 0.803,-0.177c0.254,-0.117 0.485,-0.288 0.679,-0.503l2.261,-2.528" style="fill:none;fill-rule:nonzero;stroke:#47416e;stroke-width:4.64px;"/><path d="M227.776,49.865c-0.804,1.397 -1.228,3.016 -1.225,4.667c0.002,1.115 0.205,2.218 0.598,3.247c0.393,1.028 0.968,1.96 1.692,2.743c0.137,0.136 0.314,0.21 0.498,0.21c0.184,-0 0.361,-0.075 0.498,-0.211c0.637,-0.709 1.146,-1.545 1.5,-2.463c0.322,-0.67 0.545,-1.393 0.661,-2.14c0.044,-0.456 0.043,-0.915 -0.002,-1.37c-0.353,-2.081 -1.322,-3.975 -2.757,-5.39c1.33,1.532 3.077,2.551 4.98,2.905c0.415,0.043 0.833,0.042 1.249,-0.001c0.682,-0.147 1.34,-0.408 1.95,-0.773c0.84,-0.438 1.595,-1.049 2.223,-1.8c0.124,-0.15 0.192,-0.344 0.191,-0.546c-0,-0.202 -0.068,-0.396 -0.192,-0.546c-1.462,-1.564 -3.425,-2.438 -5.467,-2.433c-1.498,0.012 -2.961,0.496 -4.214,1.395" style="fill:none;fill-rule:nonzero;stroke:#47416e;stroke-width:4.64px;"/><path d="M205.362,23.117c0.231,-0.29 0.493,-0.549 0.78,-0.771c0.802,-0.562 1.699,-0.943 2.637,-1.12c0.938,-0.177 1.899,-0.148 2.826,0.087c2.193,0.36 4.308,1.148 6.248,2.326c3.647,1.926 6.712,4.961 8.831,8.743c1.879,3.803 2.945,8.025 3.116,12.346c-0,0.299 0.335,2.546 0.12,2.696l-2.164,2.442c-0.136,0.236 -2.166,0.003 -2.439,-0.104c-3.96,-0.109 -7.843,-1.226 -11.343,-3.262c-3.472,-2.244 -6.27,-5.551 -8.051,-9.515c-1.721,-3.915 -3.68,-10.141 -0.561,-13.868Z" style="fill:none;fill-rule:nonzero;stroke:#47416e;stroke-width:4.64px;"/><path d="M218.948,25.585c-0.788,2.921 -2.212,5.589 -4.149,7.773c-1.944,2.179 -4.349,3.799 -7.001,4.716" style="fill:none;fill-rule:nonzero;stroke:#47416e;stroke-width:4.64px;"/><path d="M210.517,25.658c0.181,-0.207 0.4,-0.372 0.641,-0.485c0.241,-0.112 0.501,-0.171 0.763,-0.171c0.262,-0 0.522,0.057 0.764,0.17c0.241,0.112 0.46,0.277 0.642,0.483c0.266,0.302 0.445,0.684 0.515,1.097c0.07,0.412 0.028,0.839 -0.122,1.225c-0.149,0.387 -0.399,0.717 -0.718,0.949c-0.319,0.232 -0.693,0.356 -1.076,0.356c-0.383,0.001 -0.758,-0.122 -1.077,-0.354c-0.32,-0.231 -0.571,-0.56 -0.721,-0.947c-0.15,-0.386 -0.193,-0.812 -0.124,-1.225c0.069,-0.413 0.247,-0.795 0.513,-1.098Z" style="fill:#201d67;fill-rule:nonzero;"/><path d="M316.613,247.505c5.405,-0.369 10.809,-2.965 15.078,-7.72c4.229,-4.713 6.545,-10.708 6.89,-16.701" style="fill:none;fill-rule:nonzero;stroke:#47416e;stroke-width:4.64px;"/><path d="M340.802,221.691l-2.401,-0.639l-24.363,-6.502c-3.279,-0.874 -6.145,2.34 -5.321,5.977l1.725,7.703l0.118,0.492l1.51,6.697l0.137,0.642l2.55,11.233l0.627,2.739c0.588,2.631 2.913,4.32 5.293,3.889c5.853,-1.055 11.354,-4.014 15.74,-8.899c4.366,-4.841 6.994,-10.943 7.944,-17.429c0.387,-2.654 -1.177,-5.263 -3.559,-5.903Z" style="fill:none;fill-rule:nonzero;stroke:#47416e;stroke-width:4.64px;"/><path d="M326.095,228.554c1.725,-0.002 3.124,1.549 3.126,3.464c0.003,1.914 -1.394,3.468 -3.118,3.47c-1.725,0.002 -3.125,-1.549 -3.127,-3.464c-0.002,-1.915 1.395,-3.468 3.119,-3.47Z" style="fill:none;fill-rule:nonzero;stroke:#47416e;stroke-width:4.64px;"/><path d="M314.544,229.873c-1.074,-1.197 -2.617,-1.58 -3.982,-1.108l1.961,8.73c0.741,-0.194 1.443,-0.58 2.028,-1.223c1.599,-1.778 1.596,-4.645 -0.007,-6.399Z" style="fill:none;fill-rule:nonzero;stroke:#47416e;stroke-width:4.64px;"/><path d="M316.99,217.67c-0.292,1.242 0.003,2.611 0.862,3.573c1.309,1.454 3.417,1.452 4.723,-0.005c0.429,-0.471 0.721,-1.049 0.857,-1.67" style="fill:none;fill-rule:nonzero;stroke:#47416e;stroke-width:4.64px;"/></g></svg>
