<?xml version="1.0" encoding="UTF-8" standalone="no"?><!DOCTYPE svg PUBLIC "-//W3C//DTD SVG 1.1//EN" "http://www.w3.org/Graphics/SVG/1.1/DTD/svg11.dtd"><svg width="100%" height="100%" viewBox="0 0 45 42" version="1.1" xmlns="http://www.w3.org/2000/svg" xmlns:xlink="http://www.w3.org/1999/xlink" xml:space="preserve" xmlns:serif="http://www.serif.com/" style="fill-rule:evenodd;clip-rule:evenodd;"><path d="M44.253,12.428c-0,-3.685 -2.992,-6.676 -6.676,-6.676l-27.136,-0c-3.684,-0 -6.676,2.991 -6.676,6.676l0,22.412c0,3.685 2.992,6.676 6.676,6.676l27.136,0c3.684,0 6.676,-2.991 6.676,-6.676l-0,-22.412Z" style="fill:#6c5fbc;"/><path d="M39.769,7.658c-0,-3.152 -2.559,-5.711 -5.711,-5.711l-27.136,0c-3.152,0 -5.711,2.559 -5.711,5.711l0,22.413c0,3.152 2.559,5.711 5.711,5.711l27.136,-0c3.152,-0 5.711,-2.559 5.711,-5.711l-0,-22.413Z" style="fill:#d4d8f1;stroke:#6c5fbc;stroke-width:1.93px;"/><path d="M31.499,12.526l-21.938,-0.097" style="fill:none;fill-rule:nonzero;stroke:#6c5fbc;stroke-width:2px;stroke-linecap:round;stroke-linejoin:round;"/><path d="M31.489,16.92l-4.882,-0.024c-2.019,-0.01 -3.653,-1.986 -3.646,-4.409c0.007,-2.423 1.651,-4.382 3.67,-4.372l4.881,0.025" style="fill:none;fill-rule:nonzero;stroke:#6c5fbc;stroke-width:2px;stroke-linecap:round;stroke-linejoin:round;"/><path d="M16.879,26.578l-6.376,-0.074c-0.522,-0.003 -0.96,-0.518 -0.971,-1.145l-0.043,-1.653c-0.01,-0.655 0.431,-1.209 0.977,-1.206l6.305,0.074l0.108,4.004Z" style="fill:none;fill-rule:nonzero;stroke:#6c5fbc;stroke-width:2px;stroke-linecap:round;stroke-linejoin:round;"/><path d="M26.892,28.959l-9.012,-0.116c-0.522,-0.003 -0.96,-0.518 -0.97,-1.145l-0.117,-5.142l14.64,0.188l0.011,0.655c0.074,3.105 -1.975,5.602 -4.552,5.56Z" style="fill:none;fill-rule:nonzero;stroke:#6c5fbc;stroke-width:2px;stroke-linecap:round;stroke-linejoin:round;"/></svg>
